ISO-10303-21;
HEADER;
FILE_DESCRIPTION(('Open CASCADE Model'),'2;1');
FILE_NAME('Open CASCADE Shape Model','2026-09-15T11:03:13',('Author'),(
    'Open CASCADE'),'Open CASCADE STEP processor 7.9','Open CASCADE 7.9'
  ,'Unknown');
FILE_SCHEMA(('AUTOMOTIVE_DESIGN { 1 0 10303 214 1 1 1 1 }'));
ENDSEC;
DATA;
#1 = APPLICATION_PROTOCOL_DEFINITION('international standard',
  'automotive_design',2000,#2);
#2 = APPLICATION_CONTEXT(
  'core data for automotive mechanical design processes');
#3 = SHAPE_DEFINITION_REPRESENTATION(#4,#10);
#4 = PRODUCT_DEFINITION_SHAPE('','',#5);
#5 = PRODUCT_DEFINITION('design','',#6,#9);
#6 = PRODUCT_DEFINITION_FORMATION('','',#7);
#7 = PRODUCT('Open CASCADE STEP translator 7.9 6',
  'Open CASCADE STEP translator 7.9 6','',(#8));
#8 = PRODUCT_CONTEXT('',#2,'mechanical');
#9 = PRODUCT_DEFINITION_CONTEXT('part definition',#2,'design');
#10 = ADVANCED_BREP_SHAPE_REPRESENTATION('',(#11,#15),#1553);
#11 = AXIS2_PLACEMENT_3D('',#12,#13,#14);
#12 = CARTESIAN_POINT('',(0.,0.,0.));
#13 = DIRECTION('',(0.,0.,1.));
#14 = DIRECTION('',(1.,0.,-0.));
#15 = MANIFOLD_SOLID_BREP('',#16);
#16 = CLOSED_SHELL('',(#17,#340,#592,#631,#670,#781,#840,#890,#897,#932,
    #967,#1022,#1077,#1116,#1155,#1214,#1273,#1308,#1343,#1398,#1453,
    #1492,#1526));
#17 = ADVANCED_FACE('',(#18),#59,.T.);
#18 = FACE_BOUND('',#19,.F.);
#19 = EDGE_LOOP('',(#20,#136,#159,#186,#187,#289,#312,#339));
#20 = ORIENTED_EDGE('',*,*,#21,.F.);
#21 = EDGE_CURVE('',#22,#24,#26,.T.);
#22 = VERTEX_POINT('',#23);
#23 = CARTESIAN_POINT('',(139.5,43.,80.));
#24 = VERTEX_POINT('',#25);
#25 = CARTESIAN_POINT('',(133.5,43.,80.));
#26 = SURFACE_CURVE('',#27,(#58,#97),.PCURVE_S1.);
#27 = B_SPLINE_CURVE_WITH_KNOTS('',8,(#28,#29,#30,#31,#32,#33,#34,#35,
    #36,#37,#38,#39,#40,#41,#42,#43,#44,#45,#46,#47,#48,#49,#50,#51,#52,
    #53,#54,#55,#56,#57),.UNSPECIFIED.,.F.,.F.,(9,7,7,7,9),(0.,
    0.160062103884,0.36851706392,0.691820367499,1.),.UNSPECIFIED.);
#28 = CARTESIAN_POINT('',(139.5,43.,80.));
#29 = CARTESIAN_POINT('',(139.5,43.,80.226877661989));
#30 = CARTESIAN_POINT('',(139.48039066689,42.998632189587,
    80.452031407614));
#31 = CARTESIAN_POINT('',(139.44169523534,42.995931794562,
    80.672869359499));
#32 = CARTESIAN_POINT('',(139.38496360702,42.992023971134,
    80.886908616609));
#33 = CARTESIAN_POINT('',(139.31175222165,42.987109495039,
    81.091860109498));
#34 = CARTESIAN_POINT('',(139.22410508588,42.981442531511,
    81.285710968509));
#35 = CARTESIAN_POINT('',(139.12453596021,42.975300486123,
    81.466804404921));
#36 = CARTESIAN_POINT('',(138.87467644097,42.960670165061,
    81.851554324479));
#37 = CARTESIAN_POINT('',(138.71671842805,42.951950494322,
    82.047686210723));
#38 = CARTESIAN_POINT('',(138.54565759378,42.943211676254,
    82.222595489713));
#39 = CARTESIAN_POINT('',(138.36430921192,42.934798509664,
    82.376839822378));
#40 = CARTESIAN_POINT('',(138.17493456246,42.926973078179,
    82.511104667092));
#41 = CARTESIAN_POINT('',(137.97935304797,42.919927526618,
    82.626096208854));
#42 = CARTESIAN_POINT('',(137.77902367979,42.91380132756,82.722463790281
    ));
#43 = CARTESIAN_POINT('',(137.258834305,42.900767660652,82.922145782667)
  );
#44 = CARTESIAN_POINT('',(136.93388948787,42.895288511693,
    83.000049769906));
#45 = CARTESIAN_POINT('',(136.60445320854,42.892616637364,
    83.036470895515));
#46 = CARTESIAN_POINT('',(136.2735939214,42.892899446421,83.032387378782
    ));
#47 = CARTESIAN_POINT('',(135.94414149172,42.896146113423,
    82.987816053521));
#48 = CARTESIAN_POINT('',(135.61918143435,42.902235917877,
    82.901860769485));
#49 = CARTESIAN_POINT('',(135.30258581422,42.910865225259,
    82.772774212649));
#50 = CARTESIAN_POINT('',(134.71156872201,42.931519836127,
    82.431550335367));
#51 = CARTESIAN_POINT('',(134.42668737807,42.94368824419,82.218280325891
    ));
#52 = CARTESIAN_POINT('',(134.15824143988,42.957396946352,
    81.955297265663));
#53 = CARTESIAN_POINT('',(133.91897645462,42.971552522466,
    81.642756741001));
#54 = CARTESIAN_POINT('',(133.72142297762,42.984552223383,
    81.283719496538));
#55 = CARTESIAN_POINT('',(133.57779889803,42.994572105017,
    80.883941774717));
#56 = CARTESIAN_POINT('',(133.5,43.,80.451910999719));
#57 = CARTESIAN_POINT('',(133.5,43.,80.));
#58 = PCURVE('',#59,#64);
#59 = CYLINDRICAL_SURFACE('',#60,43.);
#60 = AXIS2_PLACEMENT_3D('',#61,#62,#63);
#61 = CARTESIAN_POINT('',(95.,0.,80.));
#62 = DIRECTION('',(-1.,-0.,-0.));
#63 = DIRECTION('',(0.,1.,0.));
#64 = DEFINITIONAL_REPRESENTATION('',(#65),#96);
#65 = B_SPLINE_CURVE_WITH_KNOTS('',8,(#66,#67,#68,#69,#70,#71,#72,#73,
    #74,#75,#76,#77,#78,#79,#80,#81,#82,#83,#84,#85,#86,#87,#88,#89,#90,
    #91,#92,#93,#94,#95),.UNSPECIFIED.,.F.,.F.,(9,7,7,7,9),(0.,
    0.160062103884,0.36851706392,0.691820367499,1.),.UNSPECIFIED.);
#66 = CARTESIAN_POINT('',(0.,-44.5));
#67 = CARTESIAN_POINT('',(-5.276224697411E-03,-44.5));
#68 = CARTESIAN_POINT('',(-1.051235857397E-02,-44.48039066689));
#69 = CARTESIAN_POINT('',(-1.564834786356E-02,-44.44169523534));
#70 = CARTESIAN_POINT('',(-2.062666327851E-02,-44.38496360702));
#71 = CARTESIAN_POINT('',(-2.539420925742E-02,-44.31175222165));
#72 = CARTESIAN_POINT('',(-2.990420989283E-02,-44.22410508588));
#73 = CARTESIAN_POINT('',(-3.411807153876E-02,-44.12453596021));
#74 = CARTESIAN_POINT('',(-4.307221065418E-02,-43.87467644097));
#75 = CARTESIAN_POINT('',(-4.763782855419E-02,-43.71671842805));
#76 = CARTESIAN_POINT('',(-5.171046921766E-02,-43.54565759378));
#77 = CARTESIAN_POINT('',(-5.530281999313E-02,-43.36430921192));
#78 = CARTESIAN_POINT('',(-5.843052749891E-02,-43.17493456246));
#79 = CARTESIAN_POINT('',(-6.110975194881E-02,-42.97935304797));
#80 = CARTESIAN_POINT('',(-6.335537925998E-02,-42.77902367978));
#81 = CARTESIAN_POINT('',(-6.800902827899E-02,-42.258834305));
#82 = CARTESIAN_POINT('',(-6.982520202111E-02,-41.93388948787));
#83 = CARTESIAN_POINT('',(-7.067448491341E-02,-41.60445320854));
#84 = CARTESIAN_POINT('',(-7.057929832625E-02,-41.2735939214));
#85 = CARTESIAN_POINT('',(-6.953999885051E-02,-40.94414149172));
#86 = CARTESIAN_POINT('',(-6.753603419084E-02,-40.61918143435));
#87 = CARTESIAN_POINT('',(-6.452737987804E-02,-40.30258581422));
#88 = CARTESIAN_POINT('',(-5.657741644803E-02,-39.71156872201));
#89 = CARTESIAN_POINT('',(-5.160961169327E-02,-39.42668737807));
#90 = CARTESIAN_POINT('',(-4.548555080536E-02,-39.15824143988));
#91 = CARTESIAN_POINT('',(-3.821007255021E-02,-38.91897645462));
#92 = CARTESIAN_POINT('',(-2.985570855288E-02,-38.72142297762));
#93 = CARTESIAN_POINT('',(-2.055678585995E-02,-38.57779889803));
#94 = CARTESIAN_POINT('',(-1.0509558133E-02,-38.5));
#95 = CARTESIAN_POINT('',(0.,-38.5));
#96 = ( GEOMETRIC_REPRESENTATION_CONTEXT(2) 
PARAMETRIC_REPRESENTATION_CONTEXT() REPRESENTATION_CONTEXT('2D SPACE',''
  ) );
#97 = PCURVE('',#98,#103);
#98 = CYLINDRICAL_SURFACE('',#99,3.);
#99 = AXIS2_PLACEMENT_3D('',#100,#101,#102);
#100 = CARTESIAN_POINT('',(136.5,86.,80.));
#101 = DIRECTION('',(-0.,1.,-0.));
#102 = DIRECTION('',(1.,0.,0.));
#103 = DEFINITIONAL_REPRESENTATION('',(#104),#135);
#104 = B_SPLINE_CURVE_WITH_KNOTS('',8,(#105,#106,#107,#108,#109,#110,
    #111,#112,#113,#114,#115,#116,#117,#118,#119,#120,#121,#122,#123,
    #124,#125,#126,#127,#128,#129,#130,#131,#132,#133,#134),
  .UNSPECIFIED.,.F.,.F.,(9,7,7,7,9),(0.,0.160062103884,0.36851706392,
    0.691820367499,1.),.UNSPECIFIED.);
#105 = CARTESIAN_POINT('',(0.,-43.));
#106 = CARTESIAN_POINT('',(-7.562588732956E-02,-43.));
#107 = CARTESIAN_POINT('',(-0.150677086519,-43.00136781041));
#108 = CARTESIAN_POINT('',(-0.224949012952,-43.00406820543));
#109 = CARTESIAN_POINT('',(-0.298230323504,-43.00797602886));
#110 = CARTESIAN_POINT('',(-0.370285781526,-43.01289050496));
#111 = CARTESIAN_POINT('',(-0.440836701024,-43.01855746848));
#112 = CARTESIAN_POINT('',(-0.509538970026,-43.02469951387));
#113 = CARTESIAN_POINT('',(-0.662459530361,-43.03932983493));
#114 = CARTESIAN_POINT('',(-0.745966314644,-43.04804950567));
#115 = CARTESIAN_POINT('',(-0.826904791658,-43.05678832374));
#116 = CARTESIAN_POINT('',(-0.905620839937,-43.06520149033));
#117 = CARTESIAN_POINT('',(-0.982426565735,-43.07302692182));
#118 = CARTESIAN_POINT('',(-1.057615157213,-43.08007247338));
#119 = CARTESIAN_POINT('',(-1.131467948462,-43.08619867244));
#120 = CARTESIAN_POINT('',(-1.317200696641,-43.09923233934));
#121 = CARTESIAN_POINT('',(-1.427627517006,-43.1047114883));
#122 = CARTESIAN_POINT('',(-1.536690571375,-43.10738336263));
#123 = CARTESIAN_POINT('',(-1.645340940832,-43.10710055357));
#124 = CARTESIAN_POINT('',(-1.754482195397,-43.10385388657));
#125 = CARTESIAN_POINT('',(-1.865021787043,-43.09776408212));
#126 = CARTESIAN_POINT('',(-1.977929768196,-43.08913477474));
#127 = CARTESIAN_POINT('',(-2.205412353051,-43.06848016387));
#128 = CARTESIAN_POINT('',(-2.323195865396,-43.05631175581));
#129 = CARTESIAN_POINT('',(-2.446603039715,-43.04260305364));
#130 = CARTESIAN_POINT('',(-2.575090996289,-43.02844747753));
#131 = CARTESIAN_POINT('',(-2.708479405501,-43.01544777661));
#132 = CARTESIAN_POINT('',(-2.84694504814,-43.00542789498));
#133 = CARTESIAN_POINT('',(-2.990955653683,-43.));
#134 = CARTESIAN_POINT('',(-3.14159265359,-43.));
#135 = ( GEOMETRIC_REPRESENTATION_CONTEXT(2) 
PARAMETRIC_REPRESENTATION_CONTEXT() REPRESENTATION_CONTEXT('2D SPACE',''
  ) );
#136 = ORIENTED_EDGE('',*,*,#137,.T.);
#137 = EDGE_CURVE('',#22,#138,#140,.T.);
#138 = VERTEX_POINT('',#139);
#139 = CARTESIAN_POINT('',(170.,43.,80.));
#140 = SEAM_CURVE('',#141,(#145,#152),.PCURVE_S1.);
#141 = LINE('',#142,#143);
#142 = CARTESIAN_POINT('',(95.,43.,80.));
#143 = VECTOR('',#144,1.);
#144 = DIRECTION('',(1.,0.,0.));
#145 = PCURVE('',#59,#146);
#146 = DEFINITIONAL_REPRESENTATION('',(#147),#151);
#147 = LINE('',#148,#149);
#148 = CARTESIAN_POINT('',(-6.28318530718,0.));
#149 = VECTOR('',#150,1.);
#150 = DIRECTION('',(-0.,-1.));
#151 = ( GEOMETRIC_REPRESENTATION_CONTEXT(2) 
PARAMETRIC_REPRESENTATION_CONTEXT() REPRESENTATION_CONTEXT('2D SPACE',''
  ) );
#152 = PCURVE('',#59,#153);
#153 = DEFINITIONAL_REPRESENTATION('',(#154),#158);
#154 = LINE('',#155,#156);
#155 = CARTESIAN_POINT('',(-0.,0.));
#156 = VECTOR('',#157,1.);
#157 = DIRECTION('',(-0.,-1.));
#158 = ( GEOMETRIC_REPRESENTATION_CONTEXT(2) 
PARAMETRIC_REPRESENTATION_CONTEXT() REPRESENTATION_CONTEXT('2D SPACE',''
  ) );
#159 = ORIENTED_EDGE('',*,*,#160,.T.);
#160 = EDGE_CURVE('',#138,#138,#161,.T.);
#161 = SURFACE_CURVE('',#162,(#167,#174),.PCURVE_S1.);
#162 = CIRCLE('',#163,43.);
#163 = AXIS2_PLACEMENT_3D('',#164,#165,#166);
#164 = CARTESIAN_POINT('',(170.,0.,80.));
#165 = DIRECTION('',(1.,0.,0.));
#166 = DIRECTION('',(0.,1.,0.));
#167 = PCURVE('',#59,#168);
#168 = DEFINITIONAL_REPRESENTATION('',(#169),#173);
#169 = LINE('',#170,#171);
#170 = CARTESIAN_POINT('',(-0.,-75.));
#171 = VECTOR('',#172,1.);
#172 = DIRECTION('',(-1.,0.));
#173 = ( GEOMETRIC_REPRESENTATION_CONTEXT(2) 
PARAMETRIC_REPRESENTATION_CONTEXT() REPRESENTATION_CONTEXT('2D SPACE',''
  ) );
#174 = PCURVE('',#175,#180);
#175 = PLANE('',#176);
#176 = AXIS2_PLACEMENT_3D('',#177,#178,#179);
#177 = CARTESIAN_POINT('',(170.,-1.017629866076E-15,80.));
#178 = DIRECTION('',(1.,0.,0.));
#179 = DIRECTION('',(-0.,0.,1.));
#180 = DEFINITIONAL_REPRESENTATION('',(#181),#185);
#181 = CIRCLE('',#182,43.);
#182 = AXIS2_PLACEMENT_2D('',#183,#184);
#183 = CARTESIAN_POINT('',(0.,-1.017629866076E-15));
#184 = DIRECTION('',(0.,-1.));
#185 = ( GEOMETRIC_REPRESENTATION_CONTEXT(2) 
PARAMETRIC_REPRESENTATION_CONTEXT() REPRESENTATION_CONTEXT('2D SPACE',''
  ) );
#186 = ORIENTED_EDGE('',*,*,#137,.F.);
#187 = ORIENTED_EDGE('',*,*,#188,.F.);
#188 = EDGE_CURVE('',#24,#22,#189,.T.);
#189 = SURFACE_CURVE('',#190,(#221,#255),.PCURVE_S1.);
#190 = B_SPLINE_CURVE_WITH_KNOTS('',8,(#191,#192,#193,#194,#195,#196,
    #197,#198,#199,#200,#201,#202,#203,#204,#205,#206,#207,#208,#209,
    #210,#211,#212,#213,#214,#215,#216,#217,#218,#219,#220),
  .UNSPECIFIED.,.F.,.F.,(9,7,7,7,9),(0.,0.160062105074,0.368517066444,
    0.691820365452,1.),.UNSPECIFIED.);
#191 = CARTESIAN_POINT('',(133.5,43.,80.));
#192 = CARTESIAN_POINT('',(133.5,43.,79.773122338216));
#193 = CARTESIAN_POINT('',(133.51960933306,42.99863218959,
    79.547968592464));
#194 = CARTESIAN_POINT('',(133.55830476465,42.995931794562,
    79.327130640398));
#195 = CARTESIAN_POINT('',(133.61503639302,42.99202397113,
    79.113091383215));
#196 = CARTESIAN_POINT('',(133.68824777841,42.987109495035,
    78.908139890404));
#197 = CARTESIAN_POINT('',(133.77589491411,42.981442531512,
    78.714289031559));
#198 = CARTESIAN_POINT('',(133.87546403967,42.975300486129,
    78.533195595253));
#199 = CARTESIAN_POINT('',(134.12532355902,42.960670165061,
    78.148445675521));
#200 = CARTESIAN_POINT('',(134.28328157194,42.951950494322,
    77.952313789277));
#201 = CARTESIAN_POINT('',(134.45434240621,42.943211676254,
    77.777404510287));
#202 = CARTESIAN_POINT('',(134.63569078807,42.934798509664,
    77.623160177622));
#203 = CARTESIAN_POINT('',(134.82506543753,42.926973078179,
    77.488895332908));
#204 = CARTESIAN_POINT('',(135.02064695202,42.919927526618,
    77.373903791146));
#205 = CARTESIAN_POINT('',(135.22097632021,42.91380132756,
    77.277536209719));
#206 = CARTESIAN_POINT('',(135.74116568849,42.900767660815,
    77.077854219827));
#207 = CARTESIAN_POINT('',(136.06611053234,42.89528851149,76.99995022714
    ));
#208 = CARTESIAN_POINT('',(136.39554676919,42.892616637252,
    76.963529102448));
#209 = CARTESIAN_POINT('',(136.72640607846,42.892899446691,
    76.967612625513));
#210 = CARTESIAN_POINT('',(137.05585853053,42.896146113522,77.0121839483
    ));
#211 = CARTESIAN_POINT('',(137.38081854573,42.902235917488,
    77.09813922405));
#212 = CARTESIAN_POINT('',(137.69741419206,42.910865225478,
    77.227225790981));
#213 = CARTESIAN_POINT('',(138.28843127798,42.931519836127,
    77.568449664634));
#214 = CARTESIAN_POINT('',(138.57331262191,42.94368824419,
    77.781719674106));
#215 = CARTESIAN_POINT('',(138.84175856012,42.957396946352,
    78.044702734339));
#216 = CARTESIAN_POINT('',(139.08102354537,42.971552522466,78.357243259)
  );
#217 = CARTESIAN_POINT('',(139.27857702238,42.984552223383,
    78.716280503458));
#218 = CARTESIAN_POINT('',(139.42220110196,42.994572105017,
    79.116058225286));
#219 = CARTESIAN_POINT('',(139.5,43.,79.54808900028));
#220 = CARTESIAN_POINT('',(139.5,43.,80.));
#221 = PCURVE('',#59,#222);
#222 = DEFINITIONAL_REPRESENTATION('',(#223),#254);
#223 = B_SPLINE_CURVE_WITH_KNOTS('',8,(#224,#225,#226,#227,#228,#229,
    #230,#231,#232,#233,#234,#235,#236,#237,#238,#239,#240,#241,#242,
    #243,#244,#245,#246,#247,#248,#249,#250,#251,#252,#253),
  .UNSPECIFIED.,.F.,.F.,(9,7,7,7,9),(0.,0.160062105074,0.368517066444,
    0.691820365452,1.),.UNSPECIFIED.);
#224 = CARTESIAN_POINT('',(-6.28318530718,-38.5));
#225 = CARTESIAN_POINT('',(-6.277909082487,-38.5));
#226 = CARTESIAN_POINT('',(-6.272672948607,-38.51960933306));
#227 = CARTESIAN_POINT('',(-6.267536959314,-38.55830476465));
#228 = CARTESIAN_POINT('',(-6.262558643897,-38.61503639302));
#229 = CARTESIAN_POINT('',(-6.25779109792,-38.68824777841));
#230 = CARTESIAN_POINT('',(-6.253281097288,-38.77589491411));
#231 = CARTESIAN_POINT('',(-6.249067235645,-38.87546403967));
#232 = CARTESIAN_POINT('',(-6.240113096525,-39.12532355902));
#233 = CARTESIAN_POINT('',(-6.235547478625,-39.28328157194));
#234 = CARTESIAN_POINT('',(-6.231474837962,-39.45434240621));
#235 = CARTESIAN_POINT('',(-6.227882487186,-39.63569078807));
#236 = CARTESIAN_POINT('',(-6.224754779681,-39.82506543753));
#237 = CARTESIAN_POINT('',(-6.222075555231,-40.02064695202));
#238 = CARTESIAN_POINT('',(-6.21982992792,-40.22097632021));
#239 = CARTESIAN_POINT('',(-6.215176278959,-40.74116568849));
#240 = CARTESIAN_POINT('',(-6.21336010509,-41.06611053234));
#241 = CARTESIAN_POINT('',(-6.212510822219,-41.39554676919));
#242 = CARTESIAN_POINT('',(-6.212606008953,-41.72640607846));
#243 = CARTESIAN_POINT('',(-6.213645308371,-42.05585853053));
#244 = CARTESIAN_POINT('',(-6.215649272838,-42.38081854573));
#245 = CARTESIAN_POINT('',(-6.218657927386,-42.69741419206));
#246 = CARTESIAN_POINT('',(-6.226607890732,-43.28843127798));
#247 = CARTESIAN_POINT('',(-6.231575695486,-43.57331262191));
#248 = CARTESIAN_POINT('',(-6.237699756374,-43.84175856012));
#249 = CARTESIAN_POINT('',(-6.244975234629,-44.08102354537));
#250 = CARTESIAN_POINT('',(-6.253329598627,-44.27857702237));
#251 = CARTESIAN_POINT('',(-6.26262852132,-44.42220110196));
#252 = CARTESIAN_POINT('',(-6.272675749047,-44.5));
#253 = CARTESIAN_POINT('',(-6.28318530718,-44.5));
#254 = ( GEOMETRIC_REPRESENTATION_CONTEXT(2) 
PARAMETRIC_REPRESENTATION_CONTEXT() REPRESENTATION_CONTEXT('2D SPACE',''
  ) );
#255 = PCURVE('',#98,#256);
#256 = DEFINITIONAL_REPRESENTATION('',(#257),#288);
#257 = B_SPLINE_CURVE_WITH_KNOTS('',8,(#258,#259,#260,#261,#262,#263,
    #264,#265,#266,#267,#268,#269,#270,#271,#272,#273,#274,#275,#276,
    #277,#278,#279,#280,#281,#282,#283,#284,#285,#286,#287),
  .UNSPECIFIED.,.F.,.F.,(9,7,7,7,9),(0.,0.160062105074,0.368517066444,
    0.691820365452,1.),.UNSPECIFIED.);
#258 = CARTESIAN_POINT('',(-3.14159265359,-43.));
#259 = CARTESIAN_POINT('',(-3.217218540851,-43.));
#260 = CARTESIAN_POINT('',(-3.292269740083,-43.00136781041));
#261 = CARTESIAN_POINT('',(-3.366541666574,-43.00406820543));
#262 = CARTESIAN_POINT('',(-3.439822977153,-43.00797602887));
#263 = CARTESIAN_POINT('',(-3.511878435154,-43.01289050496));
#264 = CARTESIAN_POINT('',(-3.582429354593,-43.01855746848));
#265 = CARTESIAN_POINT('',(-3.651131623547,-43.02469951387));
#266 = CARTESIAN_POINT('',(-3.80405218395,-43.03932983493));
#267 = CARTESIAN_POINT('',(-3.887558968234,-43.04804950567));
#268 = CARTESIAN_POINT('',(-3.968497445248,-43.05678832374));
#269 = CARTESIAN_POINT('',(-4.047213493527,-43.06520149033));
#270 = CARTESIAN_POINT('',(-4.124019219325,-43.07302692182));
#271 = CARTESIAN_POINT('',(-4.199207810802,-43.08007247338));
#272 = CARTESIAN_POINT('',(-4.273060602051,-43.08619867244));
#273 = CARTESIAN_POINT('',(-4.458793347911,-43.09923233918));
#274 = CARTESIAN_POINT('',(-4.569220177828,-43.10471148851));
#275 = CARTESIAN_POINT('',(-4.678283216924,-43.10738336274));
#276 = CARTESIAN_POINT('',(-4.786933594495,-43.1071005533));
#277 = CARTESIAN_POINT('',(-4.896074857024,-43.10385388647));
#278 = CARTESIAN_POINT('',(-5.006614433242,-43.09776408251));
#279 = CARTESIAN_POINT('',(-5.119522424206,-43.08913477452));
#280 = CARTESIAN_POINT('',(-5.347005006641,-43.06848016387));
#281 = CARTESIAN_POINT('',(-5.464788518985,-43.05631175581));
#282 = CARTESIAN_POINT('',(-5.588195693306,-43.04260305364));
#283 = CARTESIAN_POINT('',(-5.716683649879,-43.02844747753));
#284 = CARTESIAN_POINT('',(-5.85007205909,-43.01544777661));
#285 = CARTESIAN_POINT('',(-5.988537701731,-43.00542789498));
#286 = CARTESIAN_POINT('',(-6.132548307273,-43.));
#287 = CARTESIAN_POINT('',(-6.28318530718,-43.));
#288 = ( GEOMETRIC_REPRESENTATION_CONTEXT(2) 
PARAMETRIC_REPRESENTATION_CONTEXT() REPRESENTATION_CONTEXT('2D SPACE',''
  ) );
#289 = ORIENTED_EDGE('',*,*,#290,.F.);
#290 = EDGE_CURVE('',#291,#24,#293,.T.);
#291 = VERTEX_POINT('',#292);
#292 = CARTESIAN_POINT('',(95.,43.,80.));
#293 = SEAM_CURVE('',#294,(#298,#305),.PCURVE_S1.);
#294 = LINE('',#295,#296);
#295 = CARTESIAN_POINT('',(95.,43.,80.));
#296 = VECTOR('',#297,1.);
#297 = DIRECTION('',(1.,0.,0.));
#298 = PCURVE('',#59,#299);
#299 = DEFINITIONAL_REPRESENTATION('',(#300),#304);
#300 = LINE('',#301,#302);
#301 = CARTESIAN_POINT('',(-0.,0.));
#302 = VECTOR('',#303,1.);
#303 = DIRECTION('',(-0.,-1.));
#304 = ( GEOMETRIC_REPRESENTATION_CONTEXT(2) 
PARAMETRIC_REPRESENTATION_CONTEXT() REPRESENTATION_CONTEXT('2D SPACE',''
  ) );
#305 = PCURVE('',#59,#306);
#306 = DEFINITIONAL_REPRESENTATION('',(#307),#311);
#307 = LINE('',#308,#309);
#308 = CARTESIAN_POINT('',(-6.28318530718,0.));
#309 = VECTOR('',#310,1.);
#310 = DIRECTION('',(-0.,-1.));
#311 = ( GEOMETRIC_REPRESENTATION_CONTEXT(2) 
PARAMETRIC_REPRESENTATION_CONTEXT() REPRESENTATION_CONTEXT('2D SPACE',''
  ) );
#312 = ORIENTED_EDGE('',*,*,#313,.F.);
#313 = EDGE_CURVE('',#291,#291,#314,.T.);
#314 = SURFACE_CURVE('',#315,(#320,#327),.PCURVE_S1.);
#315 = CIRCLE('',#316,43.);
#316 = AXIS2_PLACEMENT_3D('',#317,#318,#319);
#317 = CARTESIAN_POINT('',(95.,0.,80.));
#318 = DIRECTION('',(1.,0.,0.));
#319 = DIRECTION('',(0.,1.,0.));
#320 = PCURVE('',#59,#321);
#321 = DEFINITIONAL_REPRESENTATION('',(#322),#326);
#322 = LINE('',#323,#324);
#323 = CARTESIAN_POINT('',(-0.,0.));
#324 = VECTOR('',#325,1.);
#325 = DIRECTION('',(-1.,0.));
#326 = ( GEOMETRIC_REPRESENTATION_CONTEXT(2) 
PARAMETRIC_REPRESENTATION_CONTEXT() REPRESENTATION_CONTEXT('2D SPACE',''
  ) );
#327 = PCURVE('',#328,#333);
#328 = PLANE('',#329);
#329 = AXIS2_PLACEMENT_3D('',#330,#331,#332);
#330 = CARTESIAN_POINT('',(95.,-1.017629866076E-15,80.));
#331 = DIRECTION('',(1.,0.,0.));
#332 = DIRECTION('',(-0.,0.,1.));
#333 = DEFINITIONAL_REPRESENTATION('',(#334),#338);
#334 = CIRCLE('',#335,43.);
#335 = AXIS2_PLACEMENT_2D('',#336,#337);
#336 = CARTESIAN_POINT('',(0.,-1.017629866076E-15));
#337 = DIRECTION('',(0.,-1.));
#338 = ( GEOMETRIC_REPRESENTATION_CONTEXT(2) 
PARAMETRIC_REPRESENTATION_CONTEXT() REPRESENTATION_CONTEXT('2D SPACE',''
  ) );
#339 = ORIENTED_EDGE('',*,*,#290,.T.);
#340 = ADVANCED_FACE('',(#341),#98,.F.);
#341 = FACE_BOUND('',#342,.T.);
#342 = EDGE_LOOP('',(#343,#344,#367,#482,#590,#591));
#343 = ORIENTED_EDGE('',*,*,#21,.F.);
#344 = ORIENTED_EDGE('',*,*,#345,.T.);
#345 = EDGE_CURVE('',#22,#346,#348,.T.);
#346 = VERTEX_POINT('',#347);
#347 = CARTESIAN_POINT('',(139.5,16.,80.));
#348 = SEAM_CURVE('',#349,(#353,#360),.PCURVE_S1.);
#349 = LINE('',#350,#351);
#350 = CARTESIAN_POINT('',(139.5,86.,80.));
#351 = VECTOR('',#352,1.);
#352 = DIRECTION('',(0.,-1.,0.));
#353 = PCURVE('',#98,#354);
#354 = DEFINITIONAL_REPRESENTATION('',(#355),#359);
#355 = LINE('',#356,#357);
#356 = CARTESIAN_POINT('',(-6.28318530718,0.));
#357 = VECTOR('',#358,1.);
#358 = DIRECTION('',(-0.,-1.));
#359 = ( GEOMETRIC_REPRESENTATION_CONTEXT(2) 
PARAMETRIC_REPRESENTATION_CONTEXT() REPRESENTATION_CONTEXT('2D SPACE',''
  ) );
#360 = PCURVE('',#98,#361);
#361 = DEFINITIONAL_REPRESENTATION('',(#362),#366);
#362 = LINE('',#363,#364);
#363 = CARTESIAN_POINT('',(-0.,0.));
#364 = VECTOR('',#365,1.);
#365 = DIRECTION('',(-0.,-1.));
#366 = ( GEOMETRIC_REPRESENTATION_CONTEXT(2) 
PARAMETRIC_REPRESENTATION_CONTEXT() REPRESENTATION_CONTEXT('2D SPACE',''
  ) );
#367 = ORIENTED_EDGE('',*,*,#368,.T.);
#368 = EDGE_CURVE('',#346,#369,#371,.T.);
#369 = VERTEX_POINT('',#370);
#370 = CARTESIAN_POINT('',(133.5,16.,80.));
#371 = SURFACE_CURVE('',#372,(#405,#441),.PCURVE_S1.);
#372 = B_SPLINE_CURVE_WITH_KNOTS('',7,(#373,#374,#375,#376,#377,#378,
    #379,#380,#381,#382,#383,#384,#385,#386,#387,#388,#389,#390,#391,
    #392,#393,#394,#395,#396,#397,#398,#399,#400,#401,#402,#403,#404),
  .UNSPECIFIED.,.F.,.F.,(8,6,6,6,6,8),(0.,0.151850114543,0.358451972672,
    0.500911425125,0.768527385746,1.),.UNSPECIFIED.);
#373 = CARTESIAN_POINT('',(139.5,16.,80.));
#374 = CARTESIAN_POINT('',(139.5,16.,80.247000262398));
#375 = CARTESIAN_POINT('',(139.47627386396,15.995551955572,
    80.491916024733));
#376 = CARTESIAN_POINT('',(139.42954434452,15.986788108092,
    80.731109327385));
#377 = CARTESIAN_POINT('',(139.36143343455,15.974233824374,
    80.961108267835));
#378 = CARTESIAN_POINT('',(139.27442938445,15.958738930971,
    81.178788873956));
#379 = CARTESIAN_POINT('',(139.17186689609,15.941336957375,
    81.381552064125));
#380 = CARTESIAN_POINT('',(138.90288907498,15.898127607025,
    81.820483975293));
#381 = CARTESIAN_POINT('',(138.7249635002,15.871260560425,
    82.045307420287));
#382 = CARTESIAN_POINT('',(138.52980864095,15.844265581801,
    82.24229813031));
#383 = CARTESIAN_POINT('',(138.3216732222,15.818584044147,82.41237888765
    ));
#384 = CARTESIAN_POINT('',(138.10379205176,15.795227824304,
    82.556644760055));
#385 = CARTESIAN_POINT('',(137.8786316947,15.774908550355,
    82.676128655413));
#386 = CARTESIAN_POINT('',(137.489056085,15.746526186948,82.83749615652)
  );
#387 = CARTESIAN_POINT('',(137.32744018933,15.736613616773,
    82.891973378282));
#388 = CARTESIAN_POINT('',(137.16384427608,15.728533987678,
    82.935307834347));
#389 = CARTESIAN_POINT('',(136.99882252635,15.722402129529,
    82.967683570499));
#390 = CARTESIAN_POINT('',(136.83286869369,15.718290434441,
    82.989226533863));
#391 = CARTESIAN_POINT('',(136.66644316143,15.716233645502,83.));
#392 = CARTESIAN_POINT('',(136.18732965226,15.716233645502,83.));
#393 = CARTESIAN_POINT('',(135.87509349495,15.723490806676,
    82.961981006827));
#394 = CARTESIAN_POINT('',(135.5659443956,15.73796938001,82.886134300505
    ));
#395 = CARTESIAN_POINT('',(135.26273534135,15.759241151099,
    82.771544413061));
#396 = CARTESIAN_POINT('',(134.96925274252,15.786447114409,
    82.616530831375));
#397 = CARTESIAN_POINT('',(134.69067559123,15.818007530572,
    82.418810664438));
#398 = CARTESIAN_POINT('',(134.21373628005,15.88014177506,
    81.966212157654));
#399 = CARTESIAN_POINT('',(134.00367828424,15.91104718869,81.71702098315
    ));
#400 = CARTESIAN_POINT('',(133.81722563408,15.941751299538,81.4292085142
    ));
#401 = CARTESIAN_POINT('',(133.66526894256,15.969013833656,
    81.106484066053));
#402 = CARTESIAN_POINT('',(133.55702329637,15.989307728965,
    80.755023830543));
#403 = CARTESIAN_POINT('',(133.5,16.,80.382927126732));
#404 = CARTESIAN_POINT('',(133.5,16.,80.));
#405 = PCURVE('',#98,#406);
#406 = DEFINITIONAL_REPRESENTATION('',(#407),#440);
#407 = B_SPLINE_CURVE_WITH_KNOTS('',7,(#408,#409,#410,#411,#412,#413,
    #414,#415,#416,#417,#418,#419,#420,#421,#422,#423,#424,#425,#426,
    #427,#428,#429,#430,#431,#432,#433,#434,#435,#436,#437,#438,#439),
  .UNSPECIFIED.,.F.,.F.,(8,6,6,6,6,8),(0.,0.151850114543,0.358451972672,
    0.500911425125,0.768527385746,1.),.UNSPECIFIED.);
#408 = CARTESIAN_POINT('',(0.,-70.));
#409 = CARTESIAN_POINT('',(-8.233342079928E-02,-70.));
#410 = CARTESIAN_POINT('',(-0.163971938253,-70.00444804442));
#411 = CARTESIAN_POINT('',(-0.244614955806,-70.0132118919));
#412 = CARTESIAN_POINT('',(-0.323946096006,-70.02576617562));
#413 = CARTESIAN_POINT('',(-0.401594571076,-70.04126106902));
#414 = CARTESIAN_POINT('',(-0.477085434612,-70.05866304262));
#415 = CARTESIAN_POINT('',(-0.64868260206,-70.10187239297));
#416 = CARTESIAN_POINT('',(-0.743569149609,-70.12873943957));
#417 = CARTESIAN_POINT('',(-0.835125547409,-70.15573441819));
#418 = CARTESIAN_POINT('',(-0.923879967597,-70.18141595585));
#419 = CARTESIAN_POINT('',(-1.010322336005,-70.20477217569));
#420 = CARTESIAN_POINT('',(-1.094904076327,-70.22509144964));
#421 = CARTESIAN_POINT('',(-1.235461943449,-70.25347381305));
#422 = CARTESIAN_POINT('',(-1.292182495545,-70.26338638322));
#423 = CARTESIAN_POINT('',(-1.348399219714,-70.27146601232));
#424 = CARTESIAN_POINT('',(-1.404243160258,-70.27759787047));
#425 = CARTESIAN_POINT('',(-1.459840216691,-70.28170956555));
#426 = CARTESIAN_POINT('',(-1.515315272983,-70.28376635449));
#427 = CARTESIAN_POINT('',(-1.675019776039,-70.28376635449));
#428 = CARTESIAN_POINT('',(-1.779098303553,-70.27650919332));
#429 = CARTESIAN_POINT('',(-1.883998078547,-70.26203061999));
#430 = CARTESIAN_POINT('',(-1.990589974108,-70.2407588489));
#431 = CARTESIAN_POINT('',(-2.099768860353,-70.21355288559));
#432 = CARTESIAN_POINT('',(-2.212493940199,-70.18199246942));
#433 = CARTESIAN_POINT('',(-2.431663208851,-70.11985822494));
#434 = CARTESIAN_POINT('',(-2.53963079492,-70.08895281131));
#435 = CARTESIAN_POINT('',(-2.652467382726,-70.05824870046));
#436 = CARTESIAN_POINT('',(-2.769367633605,-70.03098616634));
#437 = CARTESIAN_POINT('',(-2.889918148846,-70.01069227103));
#438 = CARTESIAN_POINT('',(-3.013950278012,-70.));
#439 = CARTESIAN_POINT('',(-3.14159265359,-70.));
#440 = ( GEOMETRIC_REPRESENTATION_CONTEXT(2) 
PARAMETRIC_REPRESENTATION_CONTEXT() REPRESENTATION_CONTEXT('2D SPACE',''
  ) );
#441 = PCURVE('',#442,#447);
#442 = CYLINDRICAL_SURFACE('',#443,16.);
#443 = AXIS2_PLACEMENT_3D('',#444,#445,#446);
#444 = CARTESIAN_POINT('',(94.,0.,80.));
#445 = DIRECTION('',(-1.,-0.,-0.));
#446 = DIRECTION('',(0.,1.,0.));
#447 = DEFINITIONAL_REPRESENTATION('',(#448),#481);
#448 = B_SPLINE_CURVE_WITH_KNOTS('',7,(#449,#450,#451,#452,#453,#454,
    #455,#456,#457,#458,#459,#460,#461,#462,#463,#464,#465,#466,#467,
    #468,#469,#470,#471,#472,#473,#474,#475,#476,#477,#478,#479,#480),
  .UNSPECIFIED.,.F.,.F.,(8,6,6,6,6,8),(0.,0.151850114543,0.358451972672,
    0.500911425125,0.768527385746,1.),.UNSPECIFIED.);
#449 = CARTESIAN_POINT('',(0.,-45.5));
#450 = CARTESIAN_POINT('',(-1.543751639986E-02,-45.5));
#451 = CARTESIAN_POINT('',(-3.074475804044E-02,-45.47627386396));
#452 = CARTESIAN_POINT('',(-4.570032210502E-02,-45.42954434452));
#453 = CARTESIAN_POINT('',(-6.009287830163E-02,-45.36143343455));
#454 = CARTESIAN_POINT('',(-7.372992670392E-02,-45.27442938445));
#455 = CARTESIAN_POINT('',(-8.644822364367E-02,-45.17186689609));
#456 = CARTESIAN_POINT('',(-0.114014073114,-44.90288907498));
#457 = CARTESIAN_POINT('',(-0.128162449875,-44.7249635002));
#458 = CARTESIAN_POINT('',(-0.140586996292,-44.52980864095));
#459 = CARTESIAN_POINT('',(-0.151336317013,-44.3216732222));
#460 = CARTESIAN_POINT('',(-0.160469844621,-44.10379205176));
#461 = CARTESIAN_POINT('',(-0.168044682463,-43.8786316947));
#462 = CARTESIAN_POINT('',(-0.178284965389,-43.489056085));
#463 = CARTESIAN_POINT('',(-0.181745644003,-43.32744018933));
#464 = CARTESIAN_POINT('',(-0.184500684321,-43.16384427608));
#465 = CARTESIAN_POINT('',(-0.186560139063,-42.99882252635));
#466 = CARTESIAN_POINT('',(-0.18793088973,-42.83286869369));
#467 = CARTESIAN_POINT('',(-0.188616386175,-42.66644316143));
#468 = CARTESIAN_POINT('',(-0.188616386175,-42.18732965226));
#469 = CARTESIAN_POINT('',(-0.186197298766,-41.87509349495));
#470 = CARTESIAN_POINT('',(-0.181371270985,-41.5659443956));
#471 = CARTESIAN_POINT('',(-0.174087178661,-41.26273534135));
#472 = CARTESIAN_POINT('',(-0.164251737732,-40.96925274252));
#473 = CARTESIAN_POINT('',(-0.151740775795,-40.69067559123));
#474 = CARTESIAN_POINT('',(-0.123188050944,-40.21373628005));
#475 = CARTESIAN_POINT('',(-0.107495628992,-40.00367828424));
#476 = CARTESIAN_POINT('',(-8.940962380289E-02,-39.81722563408));
#477 = CARTESIAN_POINT('',(-6.917755633436E-02,-39.66526894256));
#478 = CARTESIAN_POINT('',(-4.718900878964E-02,-39.55702329637));
#479 = CARTESIAN_POINT('',(-2.393294542078E-02,-39.5));
#480 = CARTESIAN_POINT('',(0.,-39.5));
#481 = ( GEOMETRIC_REPRESENTATION_CONTEXT(2) 
PARAMETRIC_REPRESENTATION_CONTEXT() REPRESENTATION_CONTEXT('2D SPACE',''
  ) );
#482 = ORIENTED_EDGE('',*,*,#483,.T.);
#483 = EDGE_CURVE('',#369,#346,#484,.T.);
#484 = SURFACE_CURVE('',#485,(#518,#554),.PCURVE_S1.);
#485 = B_SPLINE_CURVE_WITH_KNOTS('',7,(#486,#487,#488,#489,#490,#491,
    #492,#493,#494,#495,#496,#497,#498,#499,#500,#501,#502,#503,#504,
    #505,#506,#507,#508,#509,#510,#511,#512,#513,#514,#515,#516,#517),
  .UNSPECIFIED.,.F.,.F.,(8,6,6,6,6,8),(0.,0.151850116136,0.358451976431,
    0.500911420105,0.768527383418,1.),.UNSPECIFIED.);
#486 = CARTESIAN_POINT('',(133.5,16.,80.));
#487 = CARTESIAN_POINT('',(133.5,16.,79.752999737602));
#488 = CARTESIAN_POINT('',(133.52372613603,15.995551955572,
    79.508083975267));
#489 = CARTESIAN_POINT('',(133.57045565547,15.986788108092,
    79.268890672615));
#490 = CARTESIAN_POINT('',(133.63856656545,15.974233824374,
    79.038891732165));
#491 = CARTESIAN_POINT('',(133.72557061554,15.958738930971,
    78.821211126044));
#492 = CARTESIAN_POINT('',(133.82813310391,15.941336957375,
    78.618447935875));
#493 = CARTESIAN_POINT('',(134.09711092501,15.898127607025,
    78.179516024707));
#494 = CARTESIAN_POINT('',(134.27503649979,15.871260560425,
    77.954692579713));
#495 = CARTESIAN_POINT('',(134.47019135904,15.844265581801,
    77.75770186969));
#496 = CARTESIAN_POINT('',(134.67832677779,15.818584044147,
    77.58762111235));
#497 = CARTESIAN_POINT('',(134.89620794823,15.795227824304,
    77.443355239945));
#498 = CARTESIAN_POINT('',(135.12136830529,15.774908550355,
    77.323871344587));
#499 = CARTESIAN_POINT('',(135.51094390352,15.746526187783,
    77.162503848229));
#500 = CARTESIAN_POINT('',(135.67255982248,15.73661361641,
    77.108026619688));
#501 = CARTESIAN_POINT('',(135.83615573316,15.728533987034,
    77.064692162015));
#502 = CARTESIAN_POINT('',(136.00117746406,15.722402129564,
    77.032316429679));
#503 = CARTESIAN_POINT('',(136.16713129455,15.71829043493,
    77.010773468884));
#504 = CARTESIAN_POINT('',(136.33355685049,15.716233645502,77.));
#505 = CARTESIAN_POINT('',(136.81267034773,15.716233645502,77.));
#506 = CARTESIAN_POINT('',(137.12490650505,15.723490806676,
    77.038018993173));
#507 = CARTESIAN_POINT('',(137.43405560439,15.73796938001,
    77.113865699494));
#508 = CARTESIAN_POINT('',(137.73726465864,15.759241151099,
    77.22845558694));
#509 = CARTESIAN_POINT('',(138.03074725747,15.786447114409,
    77.383469168625));
#510 = CARTESIAN_POINT('',(138.30932440876,15.818007530572,
    77.581189335562));
#511 = CARTESIAN_POINT('',(138.78626371994,15.88014177506,
    78.033787842346));
#512 = CARTESIAN_POINT('',(138.99632171576,15.91104718869,78.28297901685
    ));
#513 = CARTESIAN_POINT('',(139.18277436591,15.941751299538,
    78.570791485801));
#514 = CARTESIAN_POINT('',(139.33473105743,15.969013833656,
    78.893515933946));
#515 = CARTESIAN_POINT('',(139.44297670362,15.989307728965,
    79.244976169457));
#516 = CARTESIAN_POINT('',(139.5,16.,79.617072873267));
#517 = CARTESIAN_POINT('',(139.5,16.,80.));
#518 = PCURVE('',#98,#519);
#519 = DEFINITIONAL_REPRESENTATION('',(#520),#553);
#520 = B_SPLINE_CURVE_WITH_KNOTS('',7,(#521,#522,#523,#524,#525,#526,
    #527,#528,#529,#530,#531,#532,#533,#534,#535,#536,#537,#538,#539,
    #540,#541,#542,#543,#544,#545,#546,#547,#548,#549,#550,#551,#552),
  .UNSPECIFIED.,.F.,.F.,(8,6,6,6,6,8),(0.,0.151850116136,0.358451976431,
    0.500911420105,0.768527383418,1.),.UNSPECIFIED.);
#521 = CARTESIAN_POINT('',(-3.14159265359,-70.));
#522 = CARTESIAN_POINT('',(-3.223926074389,-70.));
#523 = CARTESIAN_POINT('',(-3.305564591843,-70.00444804442));
#524 = CARTESIAN_POINT('',(-3.386207609396,-70.0132118919));
#525 = CARTESIAN_POINT('',(-3.465538749596,-70.02576617562));
#526 = CARTESIAN_POINT('',(-3.543187224666,-70.04126106902));
#527 = CARTESIAN_POINT('',(-3.618678088201,-70.05866304262));
#528 = CARTESIAN_POINT('',(-3.79027525565,-70.10187239297));
#529 = CARTESIAN_POINT('',(-3.885161803198,-70.12873943957));
#530 = CARTESIAN_POINT('',(-3.976718200999,-70.15573441819));
#531 = CARTESIAN_POINT('',(-4.065472621187,-70.18141595585));
#532 = CARTESIAN_POINT('',(-4.151914989594,-70.20477217569));
#533 = CARTESIAN_POINT('',(-4.236496729917,-70.22509144964));
#534 = CARTESIAN_POINT('',(-4.377054592902,-70.25347381221));
#535 = CARTESIAN_POINT('',(-4.433775153195,-70.26338638359));
#536 = CARTESIAN_POINT('',(-4.489991876617,-70.27146601296));
#537 = CARTESIAN_POINT('',(-4.545835810652,-70.27759787043));
#538 = CARTESIAN_POINT('',(-4.601432866198,-70.28170956507));
#539 = CARTESIAN_POINT('',(-4.65690793055,-70.28376635449));
#540 = CARTESIAN_POINT('',(-4.816612429629,-70.28376635449));
#541 = CARTESIAN_POINT('',(-4.920690957143,-70.27650919332));
#542 = CARTESIAN_POINT('',(-5.025590732137,-70.26203061999));
#543 = CARTESIAN_POINT('',(-5.132182627698,-70.2407588489));
#544 = CARTESIAN_POINT('',(-5.241361513943,-70.21355288559));
#545 = CARTESIAN_POINT('',(-5.354086593789,-70.18199246942));
#546 = CARTESIAN_POINT('',(-5.573255862441,-70.11985822494));
#547 = CARTESIAN_POINT('',(-5.68122344851,-70.08895281131));
#548 = CARTESIAN_POINT('',(-5.794060036316,-70.05824870046));
#549 = CARTESIAN_POINT('',(-5.910960287194,-70.03098616634));
#550 = CARTESIAN_POINT('',(-6.031510802436,-70.01069227103));
#551 = CARTESIAN_POINT('',(-6.155542931602,-70.));
#552 = CARTESIAN_POINT('',(-6.28318530718,-70.));
#553 = ( GEOMETRIC_REPRESENTATION_CONTEXT(2) 
PARAMETRIC_REPRESENTATION_CONTEXT() REPRESENTATION_CONTEXT('2D SPACE',''
  ) );
#554 = PCURVE('',#442,#555);
#555 = DEFINITIONAL_REPRESENTATION('',(#556),#589);
#556 = B_SPLINE_CURVE_WITH_KNOTS('',7,(#557,#558,#559,#560,#561,#562,
    #563,#564,#565,#566,#567,#568,#569,#570,#571,#572,#573,#574,#575,
    #576,#577,#578,#579,#580,#581,#582,#583,#584,#585,#586,#587,#588),
  .UNSPECIFIED.,.F.,.F.,(8,6,6,6,6,8),(0.,0.151850116136,0.358451976431,
    0.500911420105,0.768527383418,1.),.UNSPECIFIED.);
#557 = CARTESIAN_POINT('',(-6.28318530718,-39.5));
#558 = CARTESIAN_POINT('',(-6.26774779078,-39.5));
#559 = CARTESIAN_POINT('',(-6.252440549139,-39.52372613603));
#560 = CARTESIAN_POINT('',(-6.237484985075,-39.57045565547));
#561 = CARTESIAN_POINT('',(-6.223092428878,-39.63856656545));
#562 = CARTESIAN_POINT('',(-6.209455380476,-39.72557061554));
#563 = CARTESIAN_POINT('',(-6.196737083536,-39.82813310391));
#564 = CARTESIAN_POINT('',(-6.169171234065,-40.09711092501));
#565 = CARTESIAN_POINT('',(-6.155022857304,-40.27503649979));
#566 = CARTESIAN_POINT('',(-6.142598310888,-40.47019135904));
#567 = CARTESIAN_POINT('',(-6.131848990167,-40.67832677779));
#568 = CARTESIAN_POINT('',(-6.122715462558,-40.89620794823));
#569 = CARTESIAN_POINT('',(-6.115140624717,-41.12136830529));
#570 = CARTESIAN_POINT('',(-6.104900342092,-41.51094390352));
#571 = CARTESIAN_POINT('',(-6.101439663048,-41.67255982248));
#572 = CARTESIAN_POINT('',(-6.098684622627,-41.83615573316));
#573 = CARTESIAN_POINT('',(-6.096625168128,-42.00117746406));
#574 = CARTESIAN_POINT('',(-6.095254417624,-42.16713129455));
#575 = CARTESIAN_POINT('',(-6.094568921004,-42.33355685049));
#576 = CARTESIAN_POINT('',(-6.094568921004,-42.81267034773));
#577 = CARTESIAN_POINT('',(-6.096988008413,-43.12490650505));
#578 = CARTESIAN_POINT('',(-6.101814036195,-43.43405560439));
#579 = CARTESIAN_POINT('',(-6.109098128519,-43.73726465864));
#580 = CARTESIAN_POINT('',(-6.118933569447,-44.03074725747));
#581 = CARTESIAN_POINT('',(-6.131444531384,-44.30932440876));
#582 = CARTESIAN_POINT('',(-6.159997256235,-44.78626371994));
#583 = CARTESIAN_POINT('',(-6.175689678187,-44.99632171576));
#584 = CARTESIAN_POINT('',(-6.193775683377,-45.18277436591));
#585 = CARTESIAN_POINT('',(-6.214007750845,-45.33473105743));
#586 = CARTESIAN_POINT('',(-6.23599629839,-45.44297670362));
#587 = CARTESIAN_POINT('',(-6.259252361759,-45.5));
#588 = CARTESIAN_POINT('',(-6.28318530718,-45.5));
#589 = ( GEOMETRIC_REPRESENTATION_CONTEXT(2) 
PARAMETRIC_REPRESENTATION_CONTEXT() REPRESENTATION_CONTEXT('2D SPACE',''
  ) );
#590 = ORIENTED_EDGE('',*,*,#345,.F.);
#591 = ORIENTED_EDGE('',*,*,#188,.F.);
#592 = ADVANCED_FACE('',(#593,#596),#328,.F.);
#593 = FACE_BOUND('',#594,.F.);
#594 = EDGE_LOOP('',(#595));
#595 = ORIENTED_EDGE('',*,*,#313,.T.);
#596 = FACE_BOUND('',#597,.F.);
#597 = EDGE_LOOP('',(#598));
#598 = ORIENTED_EDGE('',*,*,#599,.T.);
#599 = EDGE_CURVE('',#600,#600,#602,.T.);
#600 = VERTEX_POINT('',#601);
#601 = CARTESIAN_POINT('',(95.,16.,80.));
#602 = SURFACE_CURVE('',#603,(#608,#619),.PCURVE_S1.);
#603 = CIRCLE('',#604,16.);
#604 = AXIS2_PLACEMENT_3D('',#605,#606,#607);
#605 = CARTESIAN_POINT('',(95.,0.,80.));
#606 = DIRECTION('',(-1.,0.,0.));
#607 = DIRECTION('',(0.,1.,0.));
#608 = PCURVE('',#328,#609);
#609 = DEFINITIONAL_REPRESENTATION('',(#610),#618);
#610 = ( BOUNDED_CURVE() B_SPLINE_CURVE(2,(#611,#612,#613,#614,#615,#616
,#617),.UNSPECIFIED.,.T.,.F.) B_SPLINE_CURVE_WITH_KNOTS((1,2,2,2,2,1),(
    -2.094395102393,0.,2.094395102393,4.188790204786,6.28318530718,
8.377580409573),.UNSPECIFIED.) CURVE() GEOMETRIC_REPRESENTATION_ITEM() 
RATIONAL_B_SPLINE_CURVE((1.,0.5,1.,0.5,1.,0.5,1.)) REPRESENTATION_ITEM(
  '') );
#611 = CARTESIAN_POINT('',(0.,-16.));
#612 = CARTESIAN_POINT('',(-27.7128129211,-16.));
#613 = CARTESIAN_POINT('',(-13.85640646055,8.));
#614 = CARTESIAN_POINT('',(-3.918869757272E-15,32.));
#615 = CARTESIAN_POINT('',(13.856406460551,8.));
#616 = CARTESIAN_POINT('',(27.712812921102,-16.));
#617 = CARTESIAN_POINT('',(0.,-16.));
#618 = ( GEOMETRIC_REPRESENTATION_CONTEXT(2) 
PARAMETRIC_REPRESENTATION_CONTEXT() REPRESENTATION_CONTEXT('2D SPACE',''
  ) );
#619 = PCURVE('',#620,#625);
#620 = CYLINDRICAL_SURFACE('',#621,16.);
#621 = AXIS2_PLACEMENT_3D('',#622,#623,#624);
#622 = CARTESIAN_POINT('',(94.,0.,80.));
#623 = DIRECTION('',(-1.,-0.,-0.));
#624 = DIRECTION('',(0.,1.,0.));
#625 = DEFINITIONAL_REPRESENTATION('',(#626),#630);
#626 = LINE('',#627,#628);
#627 = CARTESIAN_POINT('',(-6.28318530718,-1.));
#628 = VECTOR('',#629,1.);
#629 = DIRECTION('',(1.,-0.));
#630 = ( GEOMETRIC_REPRESENTATION_CONTEXT(2) 
PARAMETRIC_REPRESENTATION_CONTEXT() REPRESENTATION_CONTEXT('2D SPACE',''
  ) );
#631 = ADVANCED_FACE('',(#632,#635),#175,.T.);
#632 = FACE_BOUND('',#633,.T.);
#633 = EDGE_LOOP('',(#634));
#634 = ORIENTED_EDGE('',*,*,#160,.T.);
#635 = FACE_BOUND('',#636,.T.);
#636 = EDGE_LOOP('',(#637));
#637 = ORIENTED_EDGE('',*,*,#638,.T.);
#638 = EDGE_CURVE('',#639,#639,#641,.T.);
#639 = VERTEX_POINT('',#640);
#640 = CARTESIAN_POINT('',(170.,35.,80.));
#641 = SURFACE_CURVE('',#642,(#647,#658),.PCURVE_S1.);
#642 = CIRCLE('',#643,35.);
#643 = AXIS2_PLACEMENT_3D('',#644,#645,#646);
#644 = CARTESIAN_POINT('',(170.,0.,80.));
#645 = DIRECTION('',(-1.,0.,0.));
#646 = DIRECTION('',(0.,1.,0.));
#647 = PCURVE('',#175,#648);
#648 = DEFINITIONAL_REPRESENTATION('',(#649),#657);
#649 = ( BOUNDED_CURVE() B_SPLINE_CURVE(2,(#650,#651,#652,#653,#654,#655
,#656),.UNSPECIFIED.,.T.,.F.) B_SPLINE_CURVE_WITH_KNOTS((1,2,2,2,2,1),(
    -2.094395102393,0.,2.094395102393,4.188790204786,6.28318530718,
8.377580409573),.UNSPECIFIED.) CURVE() GEOMETRIC_REPRESENTATION_ITEM() 
RATIONAL_B_SPLINE_CURVE((1.,0.5,1.,0.5,1.,0.5,1.)) REPRESENTATION_ITEM(
  '') );
#650 = CARTESIAN_POINT('',(0.,-35.));
#651 = CARTESIAN_POINT('',(-60.62177826491,-35.));
#652 = CARTESIAN_POINT('',(-30.31088913245,17.5));
#653 = CARTESIAN_POINT('',(-8.572527594031E-15,70.));
#654 = CARTESIAN_POINT('',(30.310889132455,17.5));
#655 = CARTESIAN_POINT('',(60.621778264911,-35.));
#656 = CARTESIAN_POINT('',(0.,-35.));
#657 = ( GEOMETRIC_REPRESENTATION_CONTEXT(2) 
PARAMETRIC_REPRESENTATION_CONTEXT() REPRESENTATION_CONTEXT('2D SPACE',''
  ) );
#658 = PCURVE('',#659,#664);
#659 = CYLINDRICAL_SURFACE('',#660,35.);
#660 = AXIS2_PLACEMENT_3D('',#661,#662,#663);
#661 = CARTESIAN_POINT('',(140.,0.,80.));
#662 = DIRECTION('',(-1.,-0.,-0.));
#663 = DIRECTION('',(0.,1.,0.));
#664 = DEFINITIONAL_REPRESENTATION('',(#665),#669);
#665 = LINE('',#666,#667);
#666 = CARTESIAN_POINT('',(-6.28318530718,-30.));
#667 = VECTOR('',#668,1.);
#668 = DIRECTION('',(1.,-0.));
#669 = ( GEOMETRIC_REPRESENTATION_CONTEXT(2) 
PARAMETRIC_REPRESENTATION_CONTEXT() REPRESENTATION_CONTEXT('2D SPACE',''
  ) );
#670 = ADVANCED_FACE('',(#671),#442,.F.);
#671 = FACE_BOUND('',#672,.T.);
#672 = EDGE_LOOP('',(#673,#696,#727,#728,#729,#752,#779,#780));
#673 = ORIENTED_EDGE('',*,*,#674,.F.);
#674 = EDGE_CURVE('',#675,#369,#677,.T.);
#675 = VERTEX_POINT('',#676);
#676 = CARTESIAN_POINT('',(133.3,16.,80.));
#677 = SEAM_CURVE('',#678,(#682,#689),.PCURVE_S1.);
#678 = LINE('',#679,#680);
#679 = CARTESIAN_POINT('',(94.,16.,80.));
#680 = VECTOR('',#681,1.);
#681 = DIRECTION('',(1.,0.,0.));
#682 = PCURVE('',#442,#683);
#683 = DEFINITIONAL_REPRESENTATION('',(#684),#688);
#684 = LINE('',#685,#686);
#685 = CARTESIAN_POINT('',(-6.28318530718,0.));
#686 = VECTOR('',#687,1.);
#687 = DIRECTION('',(-0.,-1.));
#688 = ( GEOMETRIC_REPRESENTATION_CONTEXT(2) 
PARAMETRIC_REPRESENTATION_CONTEXT() REPRESENTATION_CONTEXT('2D SPACE',''
  ) );
#689 = PCURVE('',#442,#690);
#690 = DEFINITIONAL_REPRESENTATION('',(#691),#695);
#691 = LINE('',#692,#693);
#692 = CARTESIAN_POINT('',(-0.,0.));
#693 = VECTOR('',#694,1.);
#694 = DIRECTION('',(-0.,-1.));
#695 = ( GEOMETRIC_REPRESENTATION_CONTEXT(2) 
PARAMETRIC_REPRESENTATION_CONTEXT() REPRESENTATION_CONTEXT('2D SPACE',''
  ) );
#696 = ORIENTED_EDGE('',*,*,#697,.T.);
#697 = EDGE_CURVE('',#675,#675,#698,.T.);
#698 = SURFACE_CURVE('',#699,(#704,#711),.PCURVE_S1.);
#699 = CIRCLE('',#700,16.);
#700 = AXIS2_PLACEMENT_3D('',#701,#702,#703);
#701 = CARTESIAN_POINT('',(133.3,0.,80.));
#702 = DIRECTION('',(-1.,0.,0.));
#703 = DIRECTION('',(0.,1.,0.));
#704 = PCURVE('',#442,#705);
#705 = DEFINITIONAL_REPRESENTATION('',(#706),#710);
#706 = LINE('',#707,#708);
#707 = CARTESIAN_POINT('',(-6.28318530718,-39.3));
#708 = VECTOR('',#709,1.);
#709 = DIRECTION('',(1.,-0.));
#710 = ( GEOMETRIC_REPRESENTATION_CONTEXT(2) 
PARAMETRIC_REPRESENTATION_CONTEXT() REPRESENTATION_CONTEXT('2D SPACE',''
  ) );
#711 = PCURVE('',#712,#717);
#712 = PLANE('',#713);
#713 = AXIS2_PLACEMENT_3D('',#714,#715,#716);
#714 = CARTESIAN_POINT('',(133.3,-5.148009910737E-16,80.));
#715 = DIRECTION('',(1.,0.,0.));
#716 = DIRECTION('',(-0.,0.,1.));
#717 = DEFINITIONAL_REPRESENTATION('',(#718),#726);
#718 = ( BOUNDED_CURVE() B_SPLINE_CURVE(2,(#719,#720,#721,#722,#723,#724
,#725),.UNSPECIFIED.,.T.,.F.) B_SPLINE_CURVE_WITH_KNOTS((1,2,2,2,2,1),(
    -2.094395102393,0.,2.094395102393,4.188790204786,6.28318530718,
8.377580409573),.UNSPECIFIED.) CURVE() GEOMETRIC_REPRESENTATION_ITEM() 
RATIONAL_B_SPLINE_CURVE((1.,0.5,1.,0.5,1.,0.5,1.)) REPRESENTATION_ITEM(
  '') );
#719 = CARTESIAN_POINT('',(-1.42108547152E-14,-16.));
#720 = CARTESIAN_POINT('',(-27.7128129211,-16.));
#721 = CARTESIAN_POINT('',(-13.85640646055,8.));
#722 = CARTESIAN_POINT('',(-1.812972447247E-14,32.));
#723 = CARTESIAN_POINT('',(13.856406460551,8.));
#724 = CARTESIAN_POINT('',(27.712812921102,-16.));
#725 = CARTESIAN_POINT('',(-1.42108547152E-14,-16.));
#726 = ( GEOMETRIC_REPRESENTATION_CONTEXT(2) 
PARAMETRIC_REPRESENTATION_CONTEXT() REPRESENTATION_CONTEXT('2D SPACE',''
  ) );
#727 = ORIENTED_EDGE('',*,*,#674,.T.);
#728 = ORIENTED_EDGE('',*,*,#368,.F.);
#729 = ORIENTED_EDGE('',*,*,#730,.T.);
#730 = EDGE_CURVE('',#346,#731,#733,.T.);
#731 = VERTEX_POINT('',#732);
#732 = CARTESIAN_POINT('',(140.,16.,80.));
#733 = SEAM_CURVE('',#734,(#738,#745),.PCURVE_S1.);
#734 = LINE('',#735,#736);
#735 = CARTESIAN_POINT('',(94.,16.,80.));
#736 = VECTOR('',#737,1.);
#737 = DIRECTION('',(1.,0.,0.));
#738 = PCURVE('',#442,#739);
#739 = DEFINITIONAL_REPRESENTATION('',(#740),#744);
#740 = LINE('',#741,#742);
#741 = CARTESIAN_POINT('',(-6.28318530718,0.));
#742 = VECTOR('',#743,1.);
#743 = DIRECTION('',(-0.,-1.));
#744 = ( GEOMETRIC_REPRESENTATION_CONTEXT(2) 
PARAMETRIC_REPRESENTATION_CONTEXT() REPRESENTATION_CONTEXT('2D SPACE',''
  ) );
#745 = PCURVE('',#442,#746);
#746 = DEFINITIONAL_REPRESENTATION('',(#747),#751);
#747 = LINE('',#748,#749);
#748 = CARTESIAN_POINT('',(-0.,0.));
#749 = VECTOR('',#750,1.);
#750 = DIRECTION('',(-0.,-1.));
#751 = ( GEOMETRIC_REPRESENTATION_CONTEXT(2) 
PARAMETRIC_REPRESENTATION_CONTEXT() REPRESENTATION_CONTEXT('2D SPACE',''
  ) );
#752 = ORIENTED_EDGE('',*,*,#753,.T.);
#753 = EDGE_CURVE('',#731,#731,#754,.T.);
#754 = SURFACE_CURVE('',#755,(#760,#767),.PCURVE_S1.);
#755 = CIRCLE('',#756,16.);
#756 = AXIS2_PLACEMENT_3D('',#757,#758,#759);
#757 = CARTESIAN_POINT('',(140.,0.,80.));
#758 = DIRECTION('',(1.,0.,0.));
#759 = DIRECTION('',(0.,1.,0.));
#760 = PCURVE('',#442,#761);
#761 = DEFINITIONAL_REPRESENTATION('',(#762),#766);
#762 = LINE('',#763,#764);
#763 = CARTESIAN_POINT('',(-0.,-46.));
#764 = VECTOR('',#765,1.);
#765 = DIRECTION('',(-1.,0.));
#766 = ( GEOMETRIC_REPRESENTATION_CONTEXT(2) 
PARAMETRIC_REPRESENTATION_CONTEXT() REPRESENTATION_CONTEXT('2D SPACE',''
  ) );
#767 = PCURVE('',#768,#773);
#768 = PLANE('',#769);
#769 = AXIS2_PLACEMENT_3D('',#770,#771,#772);
#770 = CARTESIAN_POINT('',(140.,-2.500461956644E-15,80.));
#771 = DIRECTION('',(1.,0.,0.));
#772 = DIRECTION('',(-0.,0.,1.));
#773 = DEFINITIONAL_REPRESENTATION('',(#774),#778);
#774 = CIRCLE('',#775,16.);
#775 = AXIS2_PLACEMENT_2D('',#776,#777);
#776 = CARTESIAN_POINT('',(0.,-2.500461956644E-15));
#777 = DIRECTION('',(0.,-1.));
#778 = ( GEOMETRIC_REPRESENTATION_CONTEXT(2) 
PARAMETRIC_REPRESENTATION_CONTEXT() REPRESENTATION_CONTEXT('2D SPACE',''
  ) );
#779 = ORIENTED_EDGE('',*,*,#730,.F.);
#780 = ORIENTED_EDGE('',*,*,#483,.F.);
#781 = ADVANCED_FACE('',(#782),#620,.F.);
#782 = FACE_BOUND('',#783,.T.);
#783 = EDGE_LOOP('',(#784,#807,#808,#809));
#784 = ORIENTED_EDGE('',*,*,#785,.F.);
#785 = EDGE_CURVE('',#600,#786,#788,.T.);
#786 = VERTEX_POINT('',#787);
#787 = CARTESIAN_POINT('',(96.,16.,80.));
#788 = SEAM_CURVE('',#789,(#793,#800),.PCURVE_S1.);
#789 = LINE('',#790,#791);
#790 = CARTESIAN_POINT('',(94.,16.,80.));
#791 = VECTOR('',#792,1.);
#792 = DIRECTION('',(1.,0.,0.));
#793 = PCURVE('',#620,#794);
#794 = DEFINITIONAL_REPRESENTATION('',(#795),#799);
#795 = LINE('',#796,#797);
#796 = CARTESIAN_POINT('',(-6.28318530718,0.));
#797 = VECTOR('',#798,1.);
#798 = DIRECTION('',(-0.,-1.));
#799 = ( GEOMETRIC_REPRESENTATION_CONTEXT(2) 
PARAMETRIC_REPRESENTATION_CONTEXT() REPRESENTATION_CONTEXT('2D SPACE',''
  ) );
#800 = PCURVE('',#620,#801);
#801 = DEFINITIONAL_REPRESENTATION('',(#802),#806);
#802 = LINE('',#803,#804);
#803 = CARTESIAN_POINT('',(-0.,0.));
#804 = VECTOR('',#805,1.);
#805 = DIRECTION('',(-0.,-1.));
#806 = ( GEOMETRIC_REPRESENTATION_CONTEXT(2) 
PARAMETRIC_REPRESENTATION_CONTEXT() REPRESENTATION_CONTEXT('2D SPACE',''
  ) );
#807 = ORIENTED_EDGE('',*,*,#599,.T.);
#808 = ORIENTED_EDGE('',*,*,#785,.T.);
#809 = ORIENTED_EDGE('',*,*,#810,.F.);
#810 = EDGE_CURVE('',#786,#786,#811,.T.);
#811 = SURFACE_CURVE('',#812,(#817,#824),.PCURVE_S1.);
#812 = CIRCLE('',#813,16.);
#813 = AXIS2_PLACEMENT_3D('',#814,#815,#816);
#814 = CARTESIAN_POINT('',(96.,0.,80.));
#815 = DIRECTION('',(-1.,0.,0.));
#816 = DIRECTION('',(0.,1.,0.));
#817 = PCURVE('',#620,#818);
#818 = DEFINITIONAL_REPRESENTATION('',(#819),#823);
#819 = LINE('',#820,#821);
#820 = CARTESIAN_POINT('',(-6.28318530718,-2.));
#821 = VECTOR('',#822,1.);
#822 = DIRECTION('',(1.,-0.));
#823 = ( GEOMETRIC_REPRESENTATION_CONTEXT(2) 
PARAMETRIC_REPRESENTATION_CONTEXT() REPRESENTATION_CONTEXT('2D SPACE',''
  ) );
#824 = PCURVE('',#825,#830);
#825 = PLANE('',#826);
#826 = AXIS2_PLACEMENT_3D('',#827,#828,#829);
#827 = CARTESIAN_POINT('',(96.,0.,80.));
#828 = DIRECTION('',(1.,0.,0.));
#829 = DIRECTION('',(-0.,0.,1.));
#830 = DEFINITIONAL_REPRESENTATION('',(#831),#839);
#831 = ( BOUNDED_CURVE() B_SPLINE_CURVE(2,(#832,#833,#834,#835,#836,#837
,#838),.UNSPECIFIED.,.T.,.F.) B_SPLINE_CURVE_WITH_KNOTS((1,2,2,2,2,1),(
    -2.094395102393,0.,2.094395102393,4.188790204786,6.28318530718,
8.377580409573),.UNSPECIFIED.) CURVE() GEOMETRIC_REPRESENTATION_ITEM() 
RATIONAL_B_SPLINE_CURVE((1.,0.5,1.,0.5,1.,0.5,1.)) REPRESENTATION_ITEM(
  '') );
#832 = CARTESIAN_POINT('',(0.,-16.));
#833 = CARTESIAN_POINT('',(-27.7128129211,-16.));
#834 = CARTESIAN_POINT('',(-13.85640646055,8.));
#835 = CARTESIAN_POINT('',(-3.918869757272E-15,32.));
#836 = CARTESIAN_POINT('',(13.856406460551,8.));
#837 = CARTESIAN_POINT('',(27.712812921102,-16.));
#838 = CARTESIAN_POINT('',(0.,-16.));
#839 = ( GEOMETRIC_REPRESENTATION_CONTEXT(2) 
PARAMETRIC_REPRESENTATION_CONTEXT() REPRESENTATION_CONTEXT('2D SPACE',''
  ) );
#840 = ADVANCED_FACE('',(#841),#659,.F.);
#841 = FACE_BOUND('',#842,.T.);
#842 = EDGE_LOOP('',(#843,#867,#888,#889));
#843 = ORIENTED_EDGE('',*,*,#844,.F.);
#844 = EDGE_CURVE('',#845,#845,#847,.T.);
#845 = VERTEX_POINT('',#846);
#846 = CARTESIAN_POINT('',(140.,35.,80.));
#847 = SURFACE_CURVE('',#848,(#853,#860),.PCURVE_S1.);
#848 = CIRCLE('',#849,35.);
#849 = AXIS2_PLACEMENT_3D('',#850,#851,#852);
#850 = CARTESIAN_POINT('',(140.,0.,80.));
#851 = DIRECTION('',(1.,0.,0.));
#852 = DIRECTION('',(0.,1.,0.));
#853 = PCURVE('',#659,#854);
#854 = DEFINITIONAL_REPRESENTATION('',(#855),#859);
#855 = LINE('',#856,#857);
#856 = CARTESIAN_POINT('',(-0.,0.));
#857 = VECTOR('',#858,1.);
#858 = DIRECTION('',(-1.,0.));
#859 = ( GEOMETRIC_REPRESENTATION_CONTEXT(2) 
PARAMETRIC_REPRESENTATION_CONTEXT() REPRESENTATION_CONTEXT('2D SPACE',''
  ) );
#860 = PCURVE('',#768,#861);
#861 = DEFINITIONAL_REPRESENTATION('',(#862),#866);
#862 = CIRCLE('',#863,35.);
#863 = AXIS2_PLACEMENT_2D('',#864,#865);
#864 = CARTESIAN_POINT('',(0.,-2.500461956644E-15));
#865 = DIRECTION('',(0.,-1.));
#866 = ( GEOMETRIC_REPRESENTATION_CONTEXT(2) 
PARAMETRIC_REPRESENTATION_CONTEXT() REPRESENTATION_CONTEXT('2D SPACE',''
  ) );
#867 = ORIENTED_EDGE('',*,*,#868,.T.);
#868 = EDGE_CURVE('',#845,#639,#869,.T.);
#869 = SEAM_CURVE('',#870,(#874,#881),.PCURVE_S1.);
#870 = LINE('',#871,#872);
#871 = CARTESIAN_POINT('',(140.,35.,80.));
#872 = VECTOR('',#873,1.);
#873 = DIRECTION('',(1.,0.,0.));
#874 = PCURVE('',#659,#875);
#875 = DEFINITIONAL_REPRESENTATION('',(#876),#880);
#876 = LINE('',#877,#878);
#877 = CARTESIAN_POINT('',(-6.28318530718,0.));
#878 = VECTOR('',#879,1.);
#879 = DIRECTION('',(-0.,-1.));
#880 = ( GEOMETRIC_REPRESENTATION_CONTEXT(2) 
PARAMETRIC_REPRESENTATION_CONTEXT() REPRESENTATION_CONTEXT('2D SPACE',''
  ) );
#881 = PCURVE('',#659,#882);
#882 = DEFINITIONAL_REPRESENTATION('',(#883),#887);
#883 = LINE('',#884,#885);
#884 = CARTESIAN_POINT('',(-0.,0.));
#885 = VECTOR('',#886,1.);
#886 = DIRECTION('',(-0.,-1.));
#887 = ( GEOMETRIC_REPRESENTATION_CONTEXT(2) 
PARAMETRIC_REPRESENTATION_CONTEXT() REPRESENTATION_CONTEXT('2D SPACE',''
  ) );
#888 = ORIENTED_EDGE('',*,*,#638,.F.);
#889 = ORIENTED_EDGE('',*,*,#868,.F.);
#890 = ADVANCED_FACE('',(#891,#894),#768,.T.);
#891 = FACE_BOUND('',#892,.T.);
#892 = EDGE_LOOP('',(#893));
#893 = ORIENTED_EDGE('',*,*,#844,.T.);
#894 = FACE_BOUND('',#895,.T.);
#895 = EDGE_LOOP('',(#896));
#896 = ORIENTED_EDGE('',*,*,#753,.F.);
#897 = ADVANCED_FACE('',(#898,#929),#712,.F.);
#898 = FACE_BOUND('',#899,.F.);
#899 = EDGE_LOOP('',(#900));
#900 = ORIENTED_EDGE('',*,*,#901,.T.);
#901 = EDGE_CURVE('',#902,#902,#904,.T.);
#902 = VERTEX_POINT('',#903);
#903 = CARTESIAN_POINT('',(133.3,21.25,80.));
#904 = SURFACE_CURVE('',#905,(#910,#917),.PCURVE_S1.);
#905 = CIRCLE('',#906,21.25);
#906 = AXIS2_PLACEMENT_3D('',#907,#908,#909);
#907 = CARTESIAN_POINT('',(133.3,0.,80.));
#908 = DIRECTION('',(1.,0.,0.));
#909 = DIRECTION('',(0.,1.,0.));
#910 = PCURVE('',#712,#911);
#911 = DEFINITIONAL_REPRESENTATION('',(#912),#916);
#912 = CIRCLE('',#913,21.25);
#913 = AXIS2_PLACEMENT_2D('',#914,#915);
#914 = CARTESIAN_POINT('',(-1.42108547152E-14,-5.148009910737E-16));
#915 = DIRECTION('',(0.,-1.));
#916 = ( GEOMETRIC_REPRESENTATION_CONTEXT(2) 
PARAMETRIC_REPRESENTATION_CONTEXT() REPRESENTATION_CONTEXT('2D SPACE',''
  ) );
#917 = PCURVE('',#918,#923);
#918 = CYLINDRICAL_SURFACE('',#919,21.25);
#919 = AXIS2_PLACEMENT_3D('',#920,#921,#922);
#920 = CARTESIAN_POINT('',(127.,0.,80.));
#921 = DIRECTION('',(-1.,-0.,-0.));
#922 = DIRECTION('',(0.,1.,0.));
#923 = DEFINITIONAL_REPRESENTATION('',(#924),#928);
#924 = LINE('',#925,#926);
#925 = CARTESIAN_POINT('',(-0.,-6.3));
#926 = VECTOR('',#927,1.);
#927 = DIRECTION('',(-1.,0.));
#928 = ( GEOMETRIC_REPRESENTATION_CONTEXT(2) 
PARAMETRIC_REPRESENTATION_CONTEXT() REPRESENTATION_CONTEXT('2D SPACE',''
  ) );
#929 = FACE_BOUND('',#930,.F.);
#930 = EDGE_LOOP('',(#931));
#931 = ORIENTED_EDGE('',*,*,#697,.T.);
#932 = ADVANCED_FACE('',(#933,#964),#825,.T.);
#933 = FACE_BOUND('',#934,.T.);
#934 = EDGE_LOOP('',(#935));
#935 = ORIENTED_EDGE('',*,*,#936,.T.);
#936 = EDGE_CURVE('',#937,#937,#939,.T.);
#937 = VERTEX_POINT('',#938);
#938 = CARTESIAN_POINT('',(96.,20.,80.));
#939 = SURFACE_CURVE('',#940,(#945,#952),.PCURVE_S1.);
#940 = CIRCLE('',#941,20.);
#941 = AXIS2_PLACEMENT_3D('',#942,#943,#944);
#942 = CARTESIAN_POINT('',(96.,0.,80.));
#943 = DIRECTION('',(1.,0.,0.));
#944 = DIRECTION('',(0.,1.,0.));
#945 = PCURVE('',#825,#946);
#946 = DEFINITIONAL_REPRESENTATION('',(#947),#951);
#947 = CIRCLE('',#948,20.);
#948 = AXIS2_PLACEMENT_2D('',#949,#950);
#949 = CARTESIAN_POINT('',(0.,0.));
#950 = DIRECTION('',(0.,-1.));
#951 = ( GEOMETRIC_REPRESENTATION_CONTEXT(2) 
PARAMETRIC_REPRESENTATION_CONTEXT() REPRESENTATION_CONTEXT('2D SPACE',''
  ) );
#952 = PCURVE('',#953,#958);
#953 = CYLINDRICAL_SURFACE('',#954,20.);
#954 = AXIS2_PLACEMENT_3D('',#955,#956,#957);
#955 = CARTESIAN_POINT('',(96.,0.,80.));
#956 = DIRECTION('',(-1.,-0.,-0.));
#957 = DIRECTION('',(0.,1.,0.));
#958 = DEFINITIONAL_REPRESENTATION('',(#959),#963);
#959 = LINE('',#960,#961);
#960 = CARTESIAN_POINT('',(-0.,0.));
#961 = VECTOR('',#962,1.);
#962 = DIRECTION('',(-1.,0.));
#963 = ( GEOMETRIC_REPRESENTATION_CONTEXT(2) 
PARAMETRIC_REPRESENTATION_CONTEXT() REPRESENTATION_CONTEXT('2D SPACE',''
  ) );
#964 = FACE_BOUND('',#965,.T.);
#965 = EDGE_LOOP('',(#966));
#966 = ORIENTED_EDGE('',*,*,#810,.T.);
#967 = ADVANCED_FACE('',(#968),#918,.F.);
#968 = FACE_BOUND('',#969,.T.);
#969 = EDGE_LOOP('',(#970,#993,#994,#995));
#970 = ORIENTED_EDGE('',*,*,#971,.T.);
#971 = EDGE_CURVE('',#972,#902,#974,.T.);
#972 = VERTEX_POINT('',#973);
#973 = CARTESIAN_POINT('',(127.,21.25,80.));
#974 = SEAM_CURVE('',#975,(#979,#986),.PCURVE_S1.);
#975 = LINE('',#976,#977);
#976 = CARTESIAN_POINT('',(127.,21.25,80.));
#977 = VECTOR('',#978,1.);
#978 = DIRECTION('',(1.,0.,0.));
#979 = PCURVE('',#918,#980);
#980 = DEFINITIONAL_REPRESENTATION('',(#981),#985);
#981 = LINE('',#982,#983);
#982 = CARTESIAN_POINT('',(-0.,0.));
#983 = VECTOR('',#984,1.);
#984 = DIRECTION('',(-0.,-1.));
#985 = ( GEOMETRIC_REPRESENTATION_CONTEXT(2) 
PARAMETRIC_REPRESENTATION_CONTEXT() REPRESENTATION_CONTEXT('2D SPACE',''
  ) );
#986 = PCURVE('',#918,#987);
#987 = DEFINITIONAL_REPRESENTATION('',(#988),#992);
#988 = LINE('',#989,#990);
#989 = CARTESIAN_POINT('',(-6.28318530718,0.));
#990 = VECTOR('',#991,1.);
#991 = DIRECTION('',(-0.,-1.));
#992 = ( GEOMETRIC_REPRESENTATION_CONTEXT(2) 
PARAMETRIC_REPRESENTATION_CONTEXT() REPRESENTATION_CONTEXT('2D SPACE',''
  ) );
#993 = ORIENTED_EDGE('',*,*,#901,.T.);
#994 = ORIENTED_EDGE('',*,*,#971,.F.);
#995 = ORIENTED_EDGE('',*,*,#996,.F.);
#996 = EDGE_CURVE('',#972,#972,#997,.T.);
#997 = SURFACE_CURVE('',#998,(#1003,#1010),.PCURVE_S1.);
#998 = CIRCLE('',#999,21.25);
#999 = AXIS2_PLACEMENT_3D('',#1000,#1001,#1002);
#1000 = CARTESIAN_POINT('',(127.,0.,80.));
#1001 = DIRECTION('',(1.,0.,0.));
#1002 = DIRECTION('',(0.,1.,0.));
#1003 = PCURVE('',#918,#1004);
#1004 = DEFINITIONAL_REPRESENTATION('',(#1005),#1009);
#1005 = LINE('',#1006,#1007);
#1006 = CARTESIAN_POINT('',(-0.,0.));
#1007 = VECTOR('',#1008,1.);
#1008 = DIRECTION('',(-1.,0.));
#1009 = ( GEOMETRIC_REPRESENTATION_CONTEXT(2) 
PARAMETRIC_REPRESENTATION_CONTEXT() REPRESENTATION_CONTEXT('2D SPACE',''
  ) );
#1010 = PCURVE('',#1011,#1016);
#1011 = PLANE('',#1012);
#1012 = AXIS2_PLACEMENT_3D('',#1013,#1014,#1015);
#1013 = CARTESIAN_POINT('',(127.,-5.148009910737E-16,80.));
#1014 = DIRECTION('',(1.,0.,0.));
#1015 = DIRECTION('',(-0.,0.,1.));
#1016 = DEFINITIONAL_REPRESENTATION('',(#1017),#1021);
#1017 = CIRCLE('',#1018,21.25);
#1018 = AXIS2_PLACEMENT_2D('',#1019,#1020);
#1019 = CARTESIAN_POINT('',(-1.42108547152E-14,-5.148009910737E-16));
#1020 = DIRECTION('',(0.,-1.));
#1021 = ( GEOMETRIC_REPRESENTATION_CONTEXT(2) 
PARAMETRIC_REPRESENTATION_CONTEXT() REPRESENTATION_CONTEXT('2D SPACE',''
  ) );
#1022 = ADVANCED_FACE('',(#1023),#953,.F.);
#1023 = FACE_BOUND('',#1024,.T.);
#1024 = EDGE_LOOP('',(#1025,#1048,#1075,#1076));
#1025 = ORIENTED_EDGE('',*,*,#1026,.T.);
#1026 = EDGE_CURVE('',#937,#1027,#1029,.T.);
#1027 = VERTEX_POINT('',#1028);
#1028 = CARTESIAN_POINT('',(103.,20.,80.));
#1029 = SEAM_CURVE('',#1030,(#1034,#1041),.PCURVE_S1.);
#1030 = LINE('',#1031,#1032);
#1031 = CARTESIAN_POINT('',(96.,20.,80.));
#1032 = VECTOR('',#1033,1.);
#1033 = DIRECTION('',(1.,0.,0.));
#1034 = PCURVE('',#953,#1035);
#1035 = DEFINITIONAL_REPRESENTATION('',(#1036),#1040);
#1036 = LINE('',#1037,#1038);
#1037 = CARTESIAN_POINT('',(-0.,0.));
#1038 = VECTOR('',#1039,1.);
#1039 = DIRECTION('',(-0.,-1.));
#1040 = ( GEOMETRIC_REPRESENTATION_CONTEXT(2) 
PARAMETRIC_REPRESENTATION_CONTEXT() REPRESENTATION_CONTEXT('2D SPACE',''
  ) );
#1041 = PCURVE('',#953,#1042);
#1042 = DEFINITIONAL_REPRESENTATION('',(#1043),#1047);
#1043 = LINE('',#1044,#1045);
#1044 = CARTESIAN_POINT('',(-6.28318530718,0.));
#1045 = VECTOR('',#1046,1.);
#1046 = DIRECTION('',(-0.,-1.));
#1047 = ( GEOMETRIC_REPRESENTATION_CONTEXT(2) 
PARAMETRIC_REPRESENTATION_CONTEXT() REPRESENTATION_CONTEXT('2D SPACE',''
  ) );
#1048 = ORIENTED_EDGE('',*,*,#1049,.T.);
#1049 = EDGE_CURVE('',#1027,#1027,#1050,.T.);
#1050 = SURFACE_CURVE('',#1051,(#1056,#1063),.PCURVE_S1.);
#1051 = CIRCLE('',#1052,20.);
#1052 = AXIS2_PLACEMENT_3D('',#1053,#1054,#1055);
#1053 = CARTESIAN_POINT('',(103.,0.,80.));
#1054 = DIRECTION('',(1.,0.,0.));
#1055 = DIRECTION('',(0.,1.,0.));
#1056 = PCURVE('',#953,#1057);
#1057 = DEFINITIONAL_REPRESENTATION('',(#1058),#1062);
#1058 = LINE('',#1059,#1060);
#1059 = CARTESIAN_POINT('',(-0.,-7.));
#1060 = VECTOR('',#1061,1.);
#1061 = DIRECTION('',(-1.,0.));
#1062 = ( GEOMETRIC_REPRESENTATION_CONTEXT(2) 
PARAMETRIC_REPRESENTATION_CONTEXT() REPRESENTATION_CONTEXT('2D SPACE',''
  ) );
#1063 = PCURVE('',#1064,#1069);
#1064 = PLANE('',#1065);
#1065 = AXIS2_PLACEMENT_3D('',#1066,#1067,#1068);
#1066 = CARTESIAN_POINT('',(103.,0.,80.));
#1067 = DIRECTION('',(1.,0.,0.));
#1068 = DIRECTION('',(-0.,0.,1.));
#1069 = DEFINITIONAL_REPRESENTATION('',(#1070),#1074);
#1070 = CIRCLE('',#1071,20.);
#1071 = AXIS2_PLACEMENT_2D('',#1072,#1073);
#1072 = CARTESIAN_POINT('',(0.,0.));
#1073 = DIRECTION('',(0.,-1.));
#1074 = ( GEOMETRIC_REPRESENTATION_CONTEXT(2) 
PARAMETRIC_REPRESENTATION_CONTEXT() REPRESENTATION_CONTEXT('2D SPACE',''
  ) );
#1075 = ORIENTED_EDGE('',*,*,#1026,.F.);
#1076 = ORIENTED_EDGE('',*,*,#936,.F.);
#1077 = ADVANCED_FACE('',(#1078,#1081),#1011,.T.);
#1078 = FACE_BOUND('',#1079,.T.);
#1079 = EDGE_LOOP('',(#1080));
#1080 = ORIENTED_EDGE('',*,*,#996,.T.);
#1081 = FACE_BOUND('',#1082,.T.);
#1082 = EDGE_LOOP('',(#1083));
#1083 = ORIENTED_EDGE('',*,*,#1084,.T.);
#1084 = EDGE_CURVE('',#1085,#1085,#1087,.T.);
#1085 = VERTEX_POINT('',#1086);
#1086 = CARTESIAN_POINT('',(127.,16.,80.));
#1087 = SURFACE_CURVE('',#1088,(#1093,#1104),.PCURVE_S1.);
#1088 = CIRCLE('',#1089,16.);
#1089 = AXIS2_PLACEMENT_3D('',#1090,#1091,#1092);
#1090 = CARTESIAN_POINT('',(127.,0.,80.));
#1091 = DIRECTION('',(-1.,0.,0.));
#1092 = DIRECTION('',(0.,1.,0.));
#1093 = PCURVE('',#1011,#1094);
#1094 = DEFINITIONAL_REPRESENTATION('',(#1095),#1103);
#1095 = ( BOUNDED_CURVE() B_SPLINE_CURVE(2,(#1096,#1097,#1098,#1099,
#1100,#1101,#1102),.UNSPECIFIED.,.T.,.F.) B_SPLINE_CURVE_WITH_KNOTS((1,2
    ,2,2,2,1),(-2.094395102393,0.,2.094395102393,4.188790204786,
6.28318530718,8.377580409573),.UNSPECIFIED.) CURVE() 
GEOMETRIC_REPRESENTATION_ITEM() RATIONAL_B_SPLINE_CURVE((1.,0.5,1.,0.5,
1.,0.5,1.)) REPRESENTATION_ITEM('') );
#1096 = CARTESIAN_POINT('',(-1.42108547152E-14,-16.));
#1097 = CARTESIAN_POINT('',(-27.7128129211,-16.));
#1098 = CARTESIAN_POINT('',(-13.85640646055,8.));
#1099 = CARTESIAN_POINT('',(-1.812972447247E-14,32.));
#1100 = CARTESIAN_POINT('',(13.856406460551,8.));
#1101 = CARTESIAN_POINT('',(27.712812921102,-16.));
#1102 = CARTESIAN_POINT('',(-1.42108547152E-14,-16.));
#1103 = ( GEOMETRIC_REPRESENTATION_CONTEXT(2) 
PARAMETRIC_REPRESENTATION_CONTEXT() REPRESENTATION_CONTEXT('2D SPACE',''
  ) );
#1104 = PCURVE('',#1105,#1110);
#1105 = CYLINDRICAL_SURFACE('',#1106,16.);
#1106 = AXIS2_PLACEMENT_3D('',#1107,#1108,#1109);
#1107 = CARTESIAN_POINT('',(94.,0.,80.));
#1108 = DIRECTION('',(-1.,-0.,-0.));
#1109 = DIRECTION('',(0.,1.,0.));
#1110 = DEFINITIONAL_REPRESENTATION('',(#1111),#1115);
#1111 = LINE('',#1112,#1113);
#1112 = CARTESIAN_POINT('',(-6.28318530718,-33.));
#1113 = VECTOR('',#1114,1.);
#1114 = DIRECTION('',(1.,-0.));
#1115 = ( GEOMETRIC_REPRESENTATION_CONTEXT(2) 
PARAMETRIC_REPRESENTATION_CONTEXT() REPRESENTATION_CONTEXT('2D SPACE',''
  ) );
#1116 = ADVANCED_FACE('',(#1117,#1120),#1064,.F.);
#1117 = FACE_BOUND('',#1118,.F.);
#1118 = EDGE_LOOP('',(#1119));
#1119 = ORIENTED_EDGE('',*,*,#1049,.T.);
#1120 = FACE_BOUND('',#1121,.F.);
#1121 = EDGE_LOOP('',(#1122));
#1122 = ORIENTED_EDGE('',*,*,#1123,.T.);
#1123 = EDGE_CURVE('',#1124,#1124,#1126,.T.);
#1124 = VERTEX_POINT('',#1125);
#1125 = CARTESIAN_POINT('',(103.,16.,80.));
#1126 = SURFACE_CURVE('',#1127,(#1132,#1143),.PCURVE_S1.);
#1127 = CIRCLE('',#1128,16.);
#1128 = AXIS2_PLACEMENT_3D('',#1129,#1130,#1131);
#1129 = CARTESIAN_POINT('',(103.,0.,80.));
#1130 = DIRECTION('',(-1.,0.,0.));
#1131 = DIRECTION('',(0.,1.,0.));
#1132 = PCURVE('',#1064,#1133);
#1133 = DEFINITIONAL_REPRESENTATION('',(#1134),#1142);
#1134 = ( BOUNDED_CURVE() B_SPLINE_CURVE(2,(#1135,#1136,#1137,#1138,
#1139,#1140,#1141),.UNSPECIFIED.,.T.,.F.) B_SPLINE_CURVE_WITH_KNOTS((1,2
    ,2,2,2,1),(-2.094395102393,0.,2.094395102393,4.188790204786,
6.28318530718,8.377580409573),.UNSPECIFIED.) CURVE() 
GEOMETRIC_REPRESENTATION_ITEM() RATIONAL_B_SPLINE_CURVE((1.,0.5,1.,0.5,
1.,0.5,1.)) REPRESENTATION_ITEM('') );
#1135 = CARTESIAN_POINT('',(0.,-16.));
#1136 = CARTESIAN_POINT('',(-27.7128129211,-16.));
#1137 = CARTESIAN_POINT('',(-13.85640646055,8.));
#1138 = CARTESIAN_POINT('',(-3.918869757272E-15,32.));
#1139 = CARTESIAN_POINT('',(13.856406460551,8.));
#1140 = CARTESIAN_POINT('',(27.712812921102,-16.));
#1141 = CARTESIAN_POINT('',(0.,-16.));
#1142 = ( GEOMETRIC_REPRESENTATION_CONTEXT(2) 
PARAMETRIC_REPRESENTATION_CONTEXT() REPRESENTATION_CONTEXT('2D SPACE',''
  ) );
#1143 = PCURVE('',#1144,#1149);
#1144 = CYLINDRICAL_SURFACE('',#1145,16.);
#1145 = AXIS2_PLACEMENT_3D('',#1146,#1147,#1148);
#1146 = CARTESIAN_POINT('',(94.,0.,80.));
#1147 = DIRECTION('',(-1.,-0.,-0.));
#1148 = DIRECTION('',(0.,1.,0.));
#1149 = DEFINITIONAL_REPRESENTATION('',(#1150),#1154);
#1150 = LINE('',#1151,#1152);
#1151 = CARTESIAN_POINT('',(-6.28318530718,-9.));
#1152 = VECTOR('',#1153,1.);
#1153 = DIRECTION('',(1.,-0.));
#1154 = ( GEOMETRIC_REPRESENTATION_CONTEXT(2) 
PARAMETRIC_REPRESENTATION_CONTEXT() REPRESENTATION_CONTEXT('2D SPACE',''
  ) );
#1155 = ADVANCED_FACE('',(#1156),#1105,.F.);
#1156 = FACE_BOUND('',#1157,.T.);
#1157 = EDGE_LOOP('',(#1158,#1181,#1212,#1213));
#1158 = ORIENTED_EDGE('',*,*,#1159,.F.);
#1159 = EDGE_CURVE('',#1160,#1085,#1162,.T.);
#1160 = VERTEX_POINT('',#1161);
#1161 = CARTESIAN_POINT('',(124.3,16.,80.));
#1162 = SEAM_CURVE('',#1163,(#1167,#1174),.PCURVE_S1.);
#1163 = LINE('',#1164,#1165);
#1164 = CARTESIAN_POINT('',(94.,16.,80.));
#1165 = VECTOR('',#1166,1.);
#1166 = DIRECTION('',(1.,0.,0.));
#1167 = PCURVE('',#1105,#1168);
#1168 = DEFINITIONAL_REPRESENTATION('',(#1169),#1173);
#1169 = LINE('',#1170,#1171);
#1170 = CARTESIAN_POINT('',(-6.28318530718,0.));
#1171 = VECTOR('',#1172,1.);
#1172 = DIRECTION('',(-0.,-1.));
#1173 = ( GEOMETRIC_REPRESENTATION_CONTEXT(2) 
PARAMETRIC_REPRESENTATION_CONTEXT() REPRESENTATION_CONTEXT('2D SPACE',''
  ) );
#1174 = PCURVE('',#1105,#1175);
#1175 = DEFINITIONAL_REPRESENTATION('',(#1176),#1180);
#1176 = LINE('',#1177,#1178);
#1177 = CARTESIAN_POINT('',(-0.,0.));
#1178 = VECTOR('',#1179,1.);
#1179 = DIRECTION('',(-0.,-1.));
#1180 = ( GEOMETRIC_REPRESENTATION_CONTEXT(2) 
PARAMETRIC_REPRESENTATION_CONTEXT() REPRESENTATION_CONTEXT('2D SPACE',''
  ) );
#1181 = ORIENTED_EDGE('',*,*,#1182,.T.);
#1182 = EDGE_CURVE('',#1160,#1160,#1183,.T.);
#1183 = SURFACE_CURVE('',#1184,(#1189,#1196),.PCURVE_S1.);
#1184 = CIRCLE('',#1185,16.);
#1185 = AXIS2_PLACEMENT_3D('',#1186,#1187,#1188);
#1186 = CARTESIAN_POINT('',(124.3,0.,80.));
#1187 = DIRECTION('',(-1.,0.,0.));
#1188 = DIRECTION('',(0.,1.,0.));
#1189 = PCURVE('',#1105,#1190);
#1190 = DEFINITIONAL_REPRESENTATION('',(#1191),#1195);
#1191 = LINE('',#1192,#1193);
#1192 = CARTESIAN_POINT('',(-6.28318530718,-30.3));
#1193 = VECTOR('',#1194,1.);
#1194 = DIRECTION('',(1.,-0.));
#1195 = ( GEOMETRIC_REPRESENTATION_CONTEXT(2) 
PARAMETRIC_REPRESENTATION_CONTEXT() REPRESENTATION_CONTEXT('2D SPACE',''
  ) );
#1196 = PCURVE('',#1197,#1202);
#1197 = PLANE('',#1198);
#1198 = AXIS2_PLACEMENT_3D('',#1199,#1200,#1201);
#1199 = CARTESIAN_POINT('',(124.3,-1.054411668464E-15,80.));
#1200 = DIRECTION('',(1.,0.,0.));
#1201 = DIRECTION('',(-0.,0.,1.));
#1202 = DEFINITIONAL_REPRESENTATION('',(#1203),#1211);
#1203 = ( BOUNDED_CURVE() B_SPLINE_CURVE(2,(#1204,#1205,#1206,#1207,
#1208,#1209,#1210),.UNSPECIFIED.,.T.,.F.) B_SPLINE_CURVE_WITH_KNOTS((1,2
    ,2,2,2,1),(-2.094395102393,0.,2.094395102393,4.188790204786,
6.28318530718,8.377580409573),.UNSPECIFIED.) CURVE() 
GEOMETRIC_REPRESENTATION_ITEM() RATIONAL_B_SPLINE_CURVE((1.,0.5,1.,0.5,
1.,0.5,1.)) REPRESENTATION_ITEM('') );
#1204 = CARTESIAN_POINT('',(0.,-16.));
#1205 = CARTESIAN_POINT('',(-27.7128129211,-16.));
#1206 = CARTESIAN_POINT('',(-13.85640646055,8.));
#1207 = CARTESIAN_POINT('',(-3.918869757272E-15,32.));
#1208 = CARTESIAN_POINT('',(13.856406460551,8.));
#1209 = CARTESIAN_POINT('',(27.712812921102,-16.));
#1210 = CARTESIAN_POINT('',(0.,-16.));
#1211 = ( GEOMETRIC_REPRESENTATION_CONTEXT(2) 
PARAMETRIC_REPRESENTATION_CONTEXT() REPRESENTATION_CONTEXT('2D SPACE',''
  ) );
#1212 = ORIENTED_EDGE('',*,*,#1159,.T.);
#1213 = ORIENTED_EDGE('',*,*,#1084,.F.);
#1214 = ADVANCED_FACE('',(#1215),#1144,.F.);
#1215 = FACE_BOUND('',#1216,.T.);
#1216 = EDGE_LOOP('',(#1217,#1240,#1241,#1242));
#1217 = ORIENTED_EDGE('',*,*,#1218,.F.);
#1218 = EDGE_CURVE('',#1124,#1219,#1221,.T.);
#1219 = VERTEX_POINT('',#1220);
#1220 = CARTESIAN_POINT('',(106.,16.,80.));
#1221 = SEAM_CURVE('',#1222,(#1226,#1233),.PCURVE_S1.);
#1222 = LINE('',#1223,#1224);
#1223 = CARTESIAN_POINT('',(94.,16.,80.));
#1224 = VECTOR('',#1225,1.);
#1225 = DIRECTION('',(1.,0.,0.));
#1226 = PCURVE('',#1144,#1227);
#1227 = DEFINITIONAL_REPRESENTATION('',(#1228),#1232);
#1228 = LINE('',#1229,#1230);
#1229 = CARTESIAN_POINT('',(-6.28318530718,0.));
#1230 = VECTOR('',#1231,1.);
#1231 = DIRECTION('',(-0.,-1.));
#1232 = ( GEOMETRIC_REPRESENTATION_CONTEXT(2) 
PARAMETRIC_REPRESENTATION_CONTEXT() REPRESENTATION_CONTEXT('2D SPACE',''
  ) );
#1233 = PCURVE('',#1144,#1234);
#1234 = DEFINITIONAL_REPRESENTATION('',(#1235),#1239);
#1235 = LINE('',#1236,#1237);
#1236 = CARTESIAN_POINT('',(-0.,0.));
#1237 = VECTOR('',#1238,1.);
#1238 = DIRECTION('',(-0.,-1.));
#1239 = ( GEOMETRIC_REPRESENTATION_CONTEXT(2) 
PARAMETRIC_REPRESENTATION_CONTEXT() REPRESENTATION_CONTEXT('2D SPACE',''
  ) );
#1240 = ORIENTED_EDGE('',*,*,#1123,.T.);
#1241 = ORIENTED_EDGE('',*,*,#1218,.T.);
#1242 = ORIENTED_EDGE('',*,*,#1243,.F.);
#1243 = EDGE_CURVE('',#1219,#1219,#1244,.T.);
#1244 = SURFACE_CURVE('',#1245,(#1250,#1257),.PCURVE_S1.);
#1245 = CIRCLE('',#1246,16.);
#1246 = AXIS2_PLACEMENT_3D('',#1247,#1248,#1249);
#1247 = CARTESIAN_POINT('',(106.,0.,80.));
#1248 = DIRECTION('',(-1.,0.,0.));
#1249 = DIRECTION('',(0.,1.,0.));
#1250 = PCURVE('',#1144,#1251);
#1251 = DEFINITIONAL_REPRESENTATION('',(#1252),#1256);
#1252 = LINE('',#1253,#1254);
#1253 = CARTESIAN_POINT('',(-6.28318530718,-12.));
#1254 = VECTOR('',#1255,1.);
#1255 = DIRECTION('',(1.,-0.));
#1256 = ( GEOMETRIC_REPRESENTATION_CONTEXT(2) 
PARAMETRIC_REPRESENTATION_CONTEXT() REPRESENTATION_CONTEXT('2D SPACE',''
  ) );
#1257 = PCURVE('',#1258,#1263);
#1258 = PLANE('',#1259);
#1259 = AXIS2_PLACEMENT_3D('',#1260,#1261,#1262);
#1260 = CARTESIAN_POINT('',(106.,-5.913254627198E-16,80.));
#1261 = DIRECTION('',(1.,0.,0.));
#1262 = DIRECTION('',(-0.,0.,1.));
#1263 = DEFINITIONAL_REPRESENTATION('',(#1264),#1272);
#1264 = ( BOUNDED_CURVE() B_SPLINE_CURVE(2,(#1265,#1266,#1267,#1268,
#1269,#1270,#1271),.UNSPECIFIED.,.T.,.F.) B_SPLINE_CURVE_WITH_KNOTS((1,2
    ,2,2,2,1),(-2.094395102393,0.,2.094395102393,4.188790204786,
6.28318530718,8.377580409573),.UNSPECIFIED.) CURVE() 
GEOMETRIC_REPRESENTATION_ITEM() RATIONAL_B_SPLINE_CURVE((1.,0.5,1.,0.5,
1.,0.5,1.)) REPRESENTATION_ITEM('') );
#1265 = CARTESIAN_POINT('',(-1.42108547152E-14,-16.));
#1266 = CARTESIAN_POINT('',(-27.7128129211,-16.));
#1267 = CARTESIAN_POINT('',(-13.85640646055,8.));
#1268 = CARTESIAN_POINT('',(-1.812972447247E-14,32.));
#1269 = CARTESIAN_POINT('',(13.856406460551,8.));
#1270 = CARTESIAN_POINT('',(27.712812921102,-16.));
#1271 = CARTESIAN_POINT('',(-1.42108547152E-14,-16.));
#1272 = ( GEOMETRIC_REPRESENTATION_CONTEXT(2) 
PARAMETRIC_REPRESENTATION_CONTEXT() REPRESENTATION_CONTEXT('2D SPACE',''
  ) );
#1273 = ADVANCED_FACE('',(#1274,#1305),#1197,.F.);
#1274 = FACE_BOUND('',#1275,.F.);
#1275 = EDGE_LOOP('',(#1276));
#1276 = ORIENTED_EDGE('',*,*,#1277,.T.);
#1277 = EDGE_CURVE('',#1278,#1278,#1280,.T.);
#1278 = VERTEX_POINT('',#1279);
#1279 = CARTESIAN_POINT('',(124.3,20.75,80.));
#1280 = SURFACE_CURVE('',#1281,(#1286,#1293),.PCURVE_S1.);
#1281 = CIRCLE('',#1282,20.75);
#1282 = AXIS2_PLACEMENT_3D('',#1283,#1284,#1285);
#1283 = CARTESIAN_POINT('',(124.3,0.,80.));
#1284 = DIRECTION('',(1.,0.,0.));
#1285 = DIRECTION('',(0.,1.,0.));
#1286 = PCURVE('',#1197,#1287);
#1287 = DEFINITIONAL_REPRESENTATION('',(#1288),#1292);
#1288 = CIRCLE('',#1289,20.75);
#1289 = AXIS2_PLACEMENT_2D('',#1290,#1291);
#1290 = CARTESIAN_POINT('',(0.,-1.054411668464E-15));
#1291 = DIRECTION('',(0.,-1.));
#1292 = ( GEOMETRIC_REPRESENTATION_CONTEXT(2) 
PARAMETRIC_REPRESENTATION_CONTEXT() REPRESENTATION_CONTEXT('2D SPACE',''
  ) );
#1293 = PCURVE('',#1294,#1299);
#1294 = CYLINDRICAL_SURFACE('',#1295,20.75);
#1295 = AXIS2_PLACEMENT_3D('',#1296,#1297,#1298);
#1296 = CARTESIAN_POINT('',(118.,0.,80.));
#1297 = DIRECTION('',(-1.,-0.,-0.));
#1298 = DIRECTION('',(0.,1.,0.));
#1299 = DEFINITIONAL_REPRESENTATION('',(#1300),#1304);
#1300 = LINE('',#1301,#1302);
#1301 = CARTESIAN_POINT('',(-0.,-6.3));
#1302 = VECTOR('',#1303,1.);
#1303 = DIRECTION('',(-1.,0.));
#1304 = ( GEOMETRIC_REPRESENTATION_CONTEXT(2) 
PARAMETRIC_REPRESENTATION_CONTEXT() REPRESENTATION_CONTEXT('2D SPACE',''
  ) );
#1305 = FACE_BOUND('',#1306,.F.);
#1306 = EDGE_LOOP('',(#1307));
#1307 = ORIENTED_EDGE('',*,*,#1182,.T.);
#1308 = ADVANCED_FACE('',(#1309,#1340),#1258,.T.);
#1309 = FACE_BOUND('',#1310,.T.);
#1310 = EDGE_LOOP('',(#1311));
#1311 = ORIENTED_EDGE('',*,*,#1312,.T.);
#1312 = EDGE_CURVE('',#1313,#1313,#1315,.T.);
#1313 = VERTEX_POINT('',#1314);
#1314 = CARTESIAN_POINT('',(106.,18.5,80.));
#1315 = SURFACE_CURVE('',#1316,(#1321,#1328),.PCURVE_S1.);
#1316 = CIRCLE('',#1317,18.5);
#1317 = AXIS2_PLACEMENT_3D('',#1318,#1319,#1320);
#1318 = CARTESIAN_POINT('',(106.,0.,80.));
#1319 = DIRECTION('',(1.,0.,0.));
#1320 = DIRECTION('',(0.,1.,0.));
#1321 = PCURVE('',#1258,#1322);
#1322 = DEFINITIONAL_REPRESENTATION('',(#1323),#1327);
#1323 = CIRCLE('',#1324,18.5);
#1324 = AXIS2_PLACEMENT_2D('',#1325,#1326);
#1325 = CARTESIAN_POINT('',(-1.42108547152E-14,-5.913254627198E-16));
#1326 = DIRECTION('',(0.,-1.));
#1327 = ( GEOMETRIC_REPRESENTATION_CONTEXT(2) 
PARAMETRIC_REPRESENTATION_CONTEXT() REPRESENTATION_CONTEXT('2D SPACE',''
  ) );
#1328 = PCURVE('',#1329,#1334);
#1329 = CYLINDRICAL_SURFACE('',#1330,18.5);
#1330 = AXIS2_PLACEMENT_3D('',#1331,#1332,#1333);
#1331 = CARTESIAN_POINT('',(106.,0.,80.));
#1332 = DIRECTION('',(-1.,-0.,-0.));
#1333 = DIRECTION('',(0.,1.,0.));
#1334 = DEFINITIONAL_REPRESENTATION('',(#1335),#1339);
#1335 = LINE('',#1336,#1337);
#1336 = CARTESIAN_POINT('',(-0.,0.));
#1337 = VECTOR('',#1338,1.);
#1338 = DIRECTION('',(-1.,0.));
#1339 = ( GEOMETRIC_REPRESENTATION_CONTEXT(2) 
PARAMETRIC_REPRESENTATION_CONTEXT() REPRESENTATION_CONTEXT('2D SPACE',''
  ) );
#1340 = FACE_BOUND('',#1341,.T.);
#1341 = EDGE_LOOP('',(#1342));
#1342 = ORIENTED_EDGE('',*,*,#1243,.T.);
#1343 = ADVANCED_FACE('',(#1344),#1294,.F.);
#1344 = FACE_BOUND('',#1345,.T.);
#1345 = EDGE_LOOP('',(#1346,#1369,#1370,#1371));
#1346 = ORIENTED_EDGE('',*,*,#1347,.T.);
#1347 = EDGE_CURVE('',#1348,#1278,#1350,.T.);
#1348 = VERTEX_POINT('',#1349);
#1349 = CARTESIAN_POINT('',(118.,20.75,80.));
#1350 = SEAM_CURVE('',#1351,(#1355,#1362),.PCURVE_S1.);
#1351 = LINE('',#1352,#1353);
#1352 = CARTESIAN_POINT('',(118.,20.75,80.));
#1353 = VECTOR('',#1354,1.);
#1354 = DIRECTION('',(1.,0.,0.));
#1355 = PCURVE('',#1294,#1356);
#1356 = DEFINITIONAL_REPRESENTATION('',(#1357),#1361);
#1357 = LINE('',#1358,#1359);
#1358 = CARTESIAN_POINT('',(-0.,0.));
#1359 = VECTOR('',#1360,1.);
#1360 = DIRECTION('',(-0.,-1.));
#1361 = ( GEOMETRIC_REPRESENTATION_CONTEXT(2) 
PARAMETRIC_REPRESENTATION_CONTEXT() REPRESENTATION_CONTEXT('2D SPACE',''
  ) );
#1362 = PCURVE('',#1294,#1363);
#1363 = DEFINITIONAL_REPRESENTATION('',(#1364),#1368);
#1364 = LINE('',#1365,#1366);
#1365 = CARTESIAN_POINT('',(-6.28318530718,0.));
#1366 = VECTOR('',#1367,1.);
#1367 = DIRECTION('',(-0.,-1.));
#1368 = ( GEOMETRIC_REPRESENTATION_CONTEXT(2) 
PARAMETRIC_REPRESENTATION_CONTEXT() REPRESENTATION_CONTEXT('2D SPACE',''
  ) );
#1369 = ORIENTED_EDGE('',*,*,#1277,.T.);
#1370 = ORIENTED_EDGE('',*,*,#1347,.F.);
#1371 = ORIENTED_EDGE('',*,*,#1372,.F.);
#1372 = EDGE_CURVE('',#1348,#1348,#1373,.T.);
#1373 = SURFACE_CURVE('',#1374,(#1379,#1386),.PCURVE_S1.);
#1374 = CIRCLE('',#1375,20.75);
#1375 = AXIS2_PLACEMENT_3D('',#1376,#1377,#1378);
#1376 = CARTESIAN_POINT('',(118.,0.,80.));
#1377 = DIRECTION('',(1.,0.,0.));
#1378 = DIRECTION('',(0.,1.,0.));
#1379 = PCURVE('',#1294,#1380);
#1380 = DEFINITIONAL_REPRESENTATION('',(#1381),#1385);
#1381 = LINE('',#1382,#1383);
#1382 = CARTESIAN_POINT('',(-0.,0.));
#1383 = VECTOR('',#1384,1.);
#1384 = DIRECTION('',(-1.,0.));
#1385 = ( GEOMETRIC_REPRESENTATION_CONTEXT(2) 
PARAMETRIC_REPRESENTATION_CONTEXT() REPRESENTATION_CONTEXT('2D SPACE',''
  ) );
#1386 = PCURVE('',#1387,#1392);
#1387 = PLANE('',#1388);
#1388 = AXIS2_PLACEMENT_3D('',#1389,#1390,#1391);
#1389 = CARTESIAN_POINT('',(118.,-1.054411668464E-15,80.));
#1390 = DIRECTION('',(1.,0.,0.));
#1391 = DIRECTION('',(-0.,0.,1.));
#1392 = DEFINITIONAL_REPRESENTATION('',(#1393),#1397);
#1393 = CIRCLE('',#1394,20.75);
#1394 = AXIS2_PLACEMENT_2D('',#1395,#1396);
#1395 = CARTESIAN_POINT('',(0.,-1.054411668464E-15));
#1396 = DIRECTION('',(0.,-1.));
#1397 = ( GEOMETRIC_REPRESENTATION_CONTEXT(2) 
PARAMETRIC_REPRESENTATION_CONTEXT() REPRESENTATION_CONTEXT('2D SPACE',''
  ) );
#1398 = ADVANCED_FACE('',(#1399),#1329,.F.);
#1399 = FACE_BOUND('',#1400,.T.);
#1400 = EDGE_LOOP('',(#1401,#1424,#1451,#1452));
#1401 = ORIENTED_EDGE('',*,*,#1402,.T.);
#1402 = EDGE_CURVE('',#1313,#1403,#1405,.T.);
#1403 = VERTEX_POINT('',#1404);
#1404 = CARTESIAN_POINT('',(115.7,18.5,80.));
#1405 = SEAM_CURVE('',#1406,(#1410,#1417),.PCURVE_S1.);
#1406 = LINE('',#1407,#1408);
#1407 = CARTESIAN_POINT('',(106.,18.5,80.));
#1408 = VECTOR('',#1409,1.);
#1409 = DIRECTION('',(1.,0.,0.));
#1410 = PCURVE('',#1329,#1411);
#1411 = DEFINITIONAL_REPRESENTATION('',(#1412),#1416);
#1412 = LINE('',#1413,#1414);
#1413 = CARTESIAN_POINT('',(-0.,0.));
#1414 = VECTOR('',#1415,1.);
#1415 = DIRECTION('',(-0.,-1.));
#1416 = ( GEOMETRIC_REPRESENTATION_CONTEXT(2) 
PARAMETRIC_REPRESENTATION_CONTEXT() REPRESENTATION_CONTEXT('2D SPACE',''
  ) );
#1417 = PCURVE('',#1329,#1418);
#1418 = DEFINITIONAL_REPRESENTATION('',(#1419),#1423);
#1419 = LINE('',#1420,#1421);
#1420 = CARTESIAN_POINT('',(-6.28318530718,0.));
#1421 = VECTOR('',#1422,1.);
#1422 = DIRECTION('',(-0.,-1.));
#1423 = ( GEOMETRIC_REPRESENTATION_CONTEXT(2) 
PARAMETRIC_REPRESENTATION_CONTEXT() REPRESENTATION_CONTEXT('2D SPACE',''
  ) );
#1424 = ORIENTED_EDGE('',*,*,#1425,.T.);
#1425 = EDGE_CURVE('',#1403,#1403,#1426,.T.);
#1426 = SURFACE_CURVE('',#1427,(#1432,#1439),.PCURVE_S1.);
#1427 = CIRCLE('',#1428,18.5);
#1428 = AXIS2_PLACEMENT_3D('',#1429,#1430,#1431);
#1429 = CARTESIAN_POINT('',(115.7,0.,80.));
#1430 = DIRECTION('',(1.,0.,0.));
#1431 = DIRECTION('',(0.,1.,0.));
#1432 = PCURVE('',#1329,#1433);
#1433 = DEFINITIONAL_REPRESENTATION('',(#1434),#1438);
#1434 = LINE('',#1435,#1436);
#1435 = CARTESIAN_POINT('',(-0.,-9.7));
#1436 = VECTOR('',#1437,1.);
#1437 = DIRECTION('',(-1.,0.));
#1438 = ( GEOMETRIC_REPRESENTATION_CONTEXT(2) 
PARAMETRIC_REPRESENTATION_CONTEXT() REPRESENTATION_CONTEXT('2D SPACE',''
  ) );
#1439 = PCURVE('',#1440,#1445);
#1440 = PLANE('',#1441);
#1441 = AXIS2_PLACEMENT_3D('',#1442,#1443,#1444);
#1442 = CARTESIAN_POINT('',(115.7,-5.913254627198E-16,80.));
#1443 = DIRECTION('',(1.,0.,0.));
#1444 = DIRECTION('',(-0.,0.,1.));
#1445 = DEFINITIONAL_REPRESENTATION('',(#1446),#1450);
#1446 = CIRCLE('',#1447,18.5);
#1447 = AXIS2_PLACEMENT_2D('',#1448,#1449);
#1448 = CARTESIAN_POINT('',(-1.42108547152E-14,-5.913254627198E-16));
#1449 = DIRECTION('',(0.,-1.));
#1450 = ( GEOMETRIC_REPRESENTATION_CONTEXT(2) 
PARAMETRIC_REPRESENTATION_CONTEXT() REPRESENTATION_CONTEXT('2D SPACE',''
  ) );
#1451 = ORIENTED_EDGE('',*,*,#1402,.F.);
#1452 = ORIENTED_EDGE('',*,*,#1312,.F.);
#1453 = ADVANCED_FACE('',(#1454,#1457),#1387,.T.);
#1454 = FACE_BOUND('',#1455,.T.);
#1455 = EDGE_LOOP('',(#1456));
#1456 = ORIENTED_EDGE('',*,*,#1372,.T.);
#1457 = FACE_BOUND('',#1458,.T.);
#1458 = EDGE_LOOP('',(#1459));
#1459 = ORIENTED_EDGE('',*,*,#1460,.T.);
#1460 = EDGE_CURVE('',#1461,#1461,#1463,.T.);
#1461 = VERTEX_POINT('',#1462);
#1462 = CARTESIAN_POINT('',(118.,16.,80.));
#1463 = SURFACE_CURVE('',#1464,(#1469,#1480),.PCURVE_S1.);
#1464 = CIRCLE('',#1465,16.);
#1465 = AXIS2_PLACEMENT_3D('',#1466,#1467,#1468);
#1466 = CARTESIAN_POINT('',(118.,0.,80.));
#1467 = DIRECTION('',(-1.,0.,0.));
#1468 = DIRECTION('',(0.,1.,0.));
#1469 = PCURVE('',#1387,#1470);
#1470 = DEFINITIONAL_REPRESENTATION('',(#1471),#1479);
#1471 = ( BOUNDED_CURVE() B_SPLINE_CURVE(2,(#1472,#1473,#1474,#1475,
#1476,#1477,#1478),.UNSPECIFIED.,.T.,.F.) B_SPLINE_CURVE_WITH_KNOTS((1,2
    ,2,2,2,1),(-2.094395102393,0.,2.094395102393,4.188790204786,
6.28318530718,8.377580409573),.UNSPECIFIED.) CURVE() 
GEOMETRIC_REPRESENTATION_ITEM() RATIONAL_B_SPLINE_CURVE((1.,0.5,1.,0.5,
1.,0.5,1.)) REPRESENTATION_ITEM('') );
#1472 = CARTESIAN_POINT('',(0.,-16.));
#1473 = CARTESIAN_POINT('',(-27.7128129211,-16.));
#1474 = CARTESIAN_POINT('',(-13.85640646055,8.));
#1475 = CARTESIAN_POINT('',(-3.918869757272E-15,32.));
#1476 = CARTESIAN_POINT('',(13.856406460551,8.));
#1477 = CARTESIAN_POINT('',(27.712812921102,-16.));
#1478 = CARTESIAN_POINT('',(0.,-16.));
#1479 = ( GEOMETRIC_REPRESENTATION_CONTEXT(2) 
PARAMETRIC_REPRESENTATION_CONTEXT() REPRESENTATION_CONTEXT('2D SPACE',''
  ) );
#1480 = PCURVE('',#1481,#1486);
#1481 = CYLINDRICAL_SURFACE('',#1482,16.);
#1482 = AXIS2_PLACEMENT_3D('',#1483,#1484,#1485);
#1483 = CARTESIAN_POINT('',(94.,0.,80.));
#1484 = DIRECTION('',(-1.,-0.,-0.));
#1485 = DIRECTION('',(0.,1.,0.));
#1486 = DEFINITIONAL_REPRESENTATION('',(#1487),#1491);
#1487 = LINE('',#1488,#1489);
#1488 = CARTESIAN_POINT('',(-6.28318530718,-24.));
#1489 = VECTOR('',#1490,1.);
#1490 = DIRECTION('',(1.,-0.));
#1491 = ( GEOMETRIC_REPRESENTATION_CONTEXT(2) 
PARAMETRIC_REPRESENTATION_CONTEXT() REPRESENTATION_CONTEXT('2D SPACE',''
  ) );
#1492 = ADVANCED_FACE('',(#1493,#1496),#1440,.F.);
#1493 = FACE_BOUND('',#1494,.F.);
#1494 = EDGE_LOOP('',(#1495));
#1495 = ORIENTED_EDGE('',*,*,#1425,.T.);
#1496 = FACE_BOUND('',#1497,.F.);
#1497 = EDGE_LOOP('',(#1498));
#1498 = ORIENTED_EDGE('',*,*,#1499,.T.);
#1499 = EDGE_CURVE('',#1500,#1500,#1502,.T.);
#1500 = VERTEX_POINT('',#1501);
#1501 = CARTESIAN_POINT('',(115.7,16.,80.));
#1502 = SURFACE_CURVE('',#1503,(#1508,#1519),.PCURVE_S1.);
#1503 = CIRCLE('',#1504,16.);
#1504 = AXIS2_PLACEMENT_3D('',#1505,#1506,#1507);
#1505 = CARTESIAN_POINT('',(115.7,0.,80.));
#1506 = DIRECTION('',(-1.,0.,0.));
#1507 = DIRECTION('',(0.,1.,0.));
#1508 = PCURVE('',#1440,#1509);
#1509 = DEFINITIONAL_REPRESENTATION('',(#1510),#1518);
#1510 = ( BOUNDED_CURVE() B_SPLINE_CURVE(2,(#1511,#1512,#1513,#1514,
#1515,#1516,#1517),.UNSPECIFIED.,.T.,.F.) B_SPLINE_CURVE_WITH_KNOTS((1,2
    ,2,2,2,1),(-2.094395102393,0.,2.094395102393,4.188790204786,
6.28318530718,8.377580409573),.UNSPECIFIED.) CURVE() 
GEOMETRIC_REPRESENTATION_ITEM() RATIONAL_B_SPLINE_CURVE((1.,0.5,1.,0.5,
1.,0.5,1.)) REPRESENTATION_ITEM('') );
#1511 = CARTESIAN_POINT('',(-1.42108547152E-14,-16.));
#1512 = CARTESIAN_POINT('',(-27.7128129211,-16.));
#1513 = CARTESIAN_POINT('',(-13.85640646055,8.));
#1514 = CARTESIAN_POINT('',(-1.812972447247E-14,32.));
#1515 = CARTESIAN_POINT('',(13.856406460551,8.));
#1516 = CARTESIAN_POINT('',(27.712812921102,-16.));
#1517 = CARTESIAN_POINT('',(-1.42108547152E-14,-16.));
#1518 = ( GEOMETRIC_REPRESENTATION_CONTEXT(2) 
PARAMETRIC_REPRESENTATION_CONTEXT() REPRESENTATION_CONTEXT('2D SPACE',''
  ) );
#1519 = PCURVE('',#1481,#1520);
#1520 = DEFINITIONAL_REPRESENTATION('',(#1521),#1525);
#1521 = LINE('',#1522,#1523);
#1522 = CARTESIAN_POINT('',(-6.28318530718,-21.7));
#1523 = VECTOR('',#1524,1.);
#1524 = DIRECTION('',(1.,-0.));
#1525 = ( GEOMETRIC_REPRESENTATION_CONTEXT(2) 
PARAMETRIC_REPRESENTATION_CONTEXT() REPRESENTATION_CONTEXT('2D SPACE',''
  ) );
#1526 = ADVANCED_FACE('',(#1527),#1481,.F.);
#1527 = FACE_BOUND('',#1528,.T.);
#1528 = EDGE_LOOP('',(#1529,#1550,#1551,#1552));
#1529 = ORIENTED_EDGE('',*,*,#1530,.F.);
#1530 = EDGE_CURVE('',#1500,#1461,#1531,.T.);
#1531 = SEAM_CURVE('',#1532,(#1536,#1543),.PCURVE_S1.);
#1532 = LINE('',#1533,#1534);
#1533 = CARTESIAN_POINT('',(94.,16.,80.));
#1534 = VECTOR('',#1535,1.);
#1535 = DIRECTION('',(1.,0.,0.));
#1536 = PCURVE('',#1481,#1537);
#1537 = DEFINITIONAL_REPRESENTATION('',(#1538),#1542);
#1538 = LINE('',#1539,#1540);
#1539 = CARTESIAN_POINT('',(-6.28318530718,0.));
#1540 = VECTOR('',#1541,1.);
#1541 = DIRECTION('',(-0.,-1.));
#1542 = ( GEOMETRIC_REPRESENTATION_CONTEXT(2) 
PARAMETRIC_REPRESENTATION_CONTEXT() REPRESENTATION_CONTEXT('2D SPACE',''
  ) );
#1543 = PCURVE('',#1481,#1544);
#1544 = DEFINITIONAL_REPRESENTATION('',(#1545),#1549);
#1545 = LINE('',#1546,#1547);
#1546 = CARTESIAN_POINT('',(-0.,0.));
#1547 = VECTOR('',#1548,1.);
#1548 = DIRECTION('',(-0.,-1.));
#1549 = ( GEOMETRIC_REPRESENTATION_CONTEXT(2) 
PARAMETRIC_REPRESENTATION_CONTEXT() REPRESENTATION_CONTEXT('2D SPACE',''
  ) );
#1550 = ORIENTED_EDGE('',*,*,#1499,.T.);
#1551 = ORIENTED_EDGE('',*,*,#1530,.T.);
#1552 = ORIENTED_EDGE('',*,*,#1460,.F.);
#1553 = ( GEOMETRIC_REPRESENTATION_CONTEXT(3) 
GLOBAL_UNCERTAINTY_ASSIGNED_CONTEXT((#1557)) 
GLOBAL_UNIT_ASSIGNED_CONTEXT((#1554,#1555,#1556)) REPRESENTATION_CONTEXT
('Context #1','3D Context with UNIT and UNCERTAINTY') );
#1554 = ( LENGTH_UNIT() NAMED_UNIT(*) SI_UNIT(.MILLI.,.METRE.) );
#1555 = ( NAMED_UNIT(*) PLANE_ANGLE_UNIT() SI_UNIT($,.RADIAN.) );
#1556 = ( NAMED_UNIT(*) SI_UNIT($,.STERADIAN.) SOLID_ANGLE_UNIT() );
#1557 = UNCERTAINTY_MEASURE_WITH_UNIT(LENGTH_MEASURE(1.E-07),#1554,
  'distance_accuracy_value','confusion accuracy');
#1558 = PRODUCT_RELATED_PRODUCT_CATEGORY('part',$,(#7));
ENDSEC;
END-ISO-10303-21;
